<svg xmlns="http://www.w3.org/2000/svg" xmlns:xlink="http://www.w3.org/1999/xlink" contentStyleType="text/css" data-diagram-type="CLASS" height="1005px" preserveAspectRatio="none" style="width:887px;height:1005px;background:#FFFFFF;" version="1.1" viewBox="0 0 887 1005" width="887px" zoomAndPan="magnify"><defs/><g><!--class Utilisateur--><g class="entity" data-entity="Utilisateur" data-source-line="2" data-uid="ent0002" id="entity_Utilisateur"><rect fill="#F1F1F1" height="162.0781" rx="2.5" ry="2.5" style="stroke:#181818;stroke-width:0.5;" width="173.7588" x="365.8" y="7"/><ellipse cx="412.4245" cy="23" fill="#ADD1B2" rx="11" ry="11" style="stroke:#181818;stroke-width:1;"/><path d="M415.3933,28.6406 Q414.8151,28.9375 414.1745,29.0781 Q413.5339,29.2344 412.8308,29.2344 Q410.3308,29.2344 409.0026,27.5938 Q407.6901,25.9375 407.6901,22.8125 Q407.6901,19.6875 409.0026,18.0313 Q410.3308,16.375 412.8308,16.375 Q413.5339,16.375 414.1745,16.5313 Q414.8308,16.6875 415.3933,16.9844 L415.3933,19.7031 Q414.7683,19.125 414.1745,18.8594 Q413.5808,18.5781 412.9558,18.5781 Q411.612,18.5781 410.9245,19.6563 Q410.237,20.7188 410.237,22.8125 Q410.237,24.9063 410.9245,25.9844 Q411.612,27.0469 412.9558,27.0469 Q413.5808,27.0469 414.1745,26.7813 Q414.7683,26.5 415.3933,25.9219 L415.3933,28.6406 Z " fill="#000000"/><text fill="#000000" font-family="sans-serif" font-size="14" lengthAdjust="spacing" textLength="72.0098" x="432.9245" y="27.8467">Utilisateur</text><line style="stroke:#181818;stroke-width:0.5;" x1="366.8" x2="538.5588" y1="39" y2="39"/><rect fill="none" height="6" style="stroke:#C82930;stroke-width:1;" width="6" x="373.8" y="49.6484"/><text fill="#000000" font-family="sans-serif" font-size="14" lengthAdjust="spacing" textLength="40.1953" x="385.8" y="55.9951">id: int</text><rect fill="none" height="6" style="stroke:#C82930;stroke-width:1;" width="6" x="373.8" y="65.9453"/><text fill="#000000" font-family="sans-serif" font-size="14" lengthAdjust="spacing" textLength="80.4316" x="385.8" y="72.292">nom: string</text><rect fill="none" height="6" style="stroke:#C82930;stroke-width:1;" width="6" x="373.8" y="82.2422"/><text fill="#000000" font-family="sans-serif" font-size="14" lengthAdjust="spacing" textLength="87.9648" x="385.8" y="88.5889">email: string</text><rect fill="none" height="6" style="stroke:#C82930;stroke-width:1;" width="6" x="373.8" y="98.5391"/><text fill="#000000" font-family="sans-serif" font-size="14" lengthAdjust="spacing" textLength="77.8682" x="385.8" y="104.8857">solde: float</text><line style="stroke:#181818;stroke-width:0.5;" x1="366.8" x2="538.5588" y1="112.1875" y2="112.1875"/><ellipse cx="376.8" cy="125.8359" fill="#84BE84" rx="3" ry="3" style="stroke:#038048;stroke-width:1;"/><text fill="#000000" font-family="sans-serif" font-size="14" lengthAdjust="spacing" textLength="95.1699" x="385.8" y="129.1826">commander()</text><ellipse cx="376.8" cy="142.1328" fill="#84BE84" rx="3" ry="3" style="stroke:#038048;stroke-width:1;"/><text fill="#000000" font-family="sans-serif" font-size="14" lengthAdjust="spacing" textLength="51.0439" x="385.8" y="145.4795">payer()</text><ellipse cx="376.8" cy="158.4297" fill="#84BE84" rx="3" ry="3" style="stroke:#038048;stroke-width:1;"/><text fill="#000000" font-family="sans-serif" font-size="14" lengthAdjust="spacing" textLength="147.7588" x="385.8" y="161.7764">consulterHistorique()</text></g><!--class Etudiant--><g class="entity" data-entity="Etudiant" data-source-line="12" data-uid="ent0003" id="entity_Etudiant"><rect fill="#F1F1F1" height="96.8906" rx="2.5" ry="2.5" style="stroke:#181818;stroke-width:0.5;" width="195.3672" x="7" y="278.68"/><ellipse cx="70.9707" cy="294.68" fill="#ADD1B2" rx="11" ry="11" style="stroke:#181818;stroke-width:1;"/><path d="M73.9395,300.3206 Q73.3613,300.6175 72.7207,300.7581 Q72.0801,300.9144 71.377,300.9144 Q68.877,300.9144 67.5488,299.2737 Q66.2363,297.6175 66.2363,294.4925 Q66.2363,291.3675 67.5488,289.7112 Q68.877,288.055 71.377,288.055 Q72.0801,288.055 72.7207,288.2112 Q73.377,288.3675 73.9395,288.6644 L73.9395,291.3831 Q73.3145,290.805 72.7207,290.5394 Q72.127,290.2581 71.502,290.2581 Q70.1582,290.2581 69.4707,291.3362 Q68.7832,292.3987 68.7832,294.4925 Q68.7832,296.5862 69.4707,297.6644 Q70.1582,298.7269 71.502,298.7269 Q72.127,298.7269 72.7207,298.4612 Q73.3145,298.18 73.9395,297.6019 L73.9395,300.3206 Z " fill="#000000"/><text fill="#000000" font-family="sans-serif" font-size="14" lengthAdjust="spacing" textLength="58.9258" x="91.4707" y="299.5267">Etudiant</text><line style="stroke:#181818;stroke-width:0.5;" x1="8" x2="201.3672" y1="310.68" y2="310.68"/><rect fill="none" height="6" style="stroke:#C82930;stroke-width:1;" width="6" x="15" y="321.3284"/><text fill="#000000" font-family="sans-serif" font-size="14" lengthAdjust="spacing" textLength="169.3672" x="27" y="327.6751">numero_etudiant: string</text><line style="stroke:#181818;stroke-width:0.5;" x1="8" x2="201.3672" y1="334.9769" y2="334.9769"/><ellipse cx="18" cy="348.6253" fill="#84BE84" rx="3" ry="3" style="stroke:#038048;stroke-width:1;"/><text fill="#000000" font-family="sans-serif" font-size="14" lengthAdjust="spacing" textLength="134.4219" x="27" y="351.972">rechargerCompte()</text><ellipse cx="18" cy="364.9222" fill="#84BE84" rx="3" ry="3" style="stroke:#038048;stroke-width:1;"/><text fill="#000000" font-family="sans-serif" font-size="14" lengthAdjust="spacing" textLength="104.5625" x="27" y="368.2689">modifierProfil()</text></g><!--class Personnel--><g class="entity" data-entity="Personnel" data-source-line="18" data-uid="ent0004" id="entity_Personnel"><rect fill="#F1F1F1" height="96.8906" rx="2.5" ry="2.5" style="stroke:#181818;stroke-width:0.5;" width="162.4111" x="237.48" y="278.68"/><ellipse cx="280.151" cy="294.68" fill="#ADD1B2" rx="11" ry="11" style="stroke:#181818;stroke-width:1;"/><path d="M283.1198,300.3206 Q282.5417,300.6175 281.901,300.7581 Q281.2604,300.9144 280.5573,300.9144 Q278.0573,300.9144 276.7292,299.2737 Q275.4167,297.6175 275.4167,294.4925 Q275.4167,291.3675 276.7292,289.7112 Q278.0573,288.055 280.5573,288.055 Q281.2604,288.055 281.901,288.2112 Q282.5573,288.3675 283.1198,288.6644 L283.1198,291.3831 Q282.4948,290.805 281.901,290.5394 Q281.3073,290.2581 280.6823,290.2581 Q279.3385,290.2581 278.651,291.3362 Q277.9635,292.3987 277.9635,294.4925 Q277.9635,296.5862 278.651,297.6644 Q279.3385,298.7269 280.6823,298.7269 Q281.3073,298.7269 281.901,298.4612 Q282.4948,298.18 283.1198,297.6019 L283.1198,300.3206 Z " fill="#000000"/><text fill="#000000" font-family="sans-serif" font-size="14" lengthAdjust="spacing" textLength="68.9199" x="300.3002" y="299.5267">Personnel</text><line style="stroke:#181818;stroke-width:0.5;" x1="238.48" x2="398.8911" y1="310.68" y2="310.68"/><rect fill="none" height="6" style="stroke:#C82930;stroke-width:1;" width="6" x="245.48" y="321.3284"/><text fill="#000000" font-family="sans-serif" font-size="14" lengthAdjust="spacing" textLength="76.1797" x="257.48" y="327.6751">role: string</text><line style="stroke:#181818;stroke-width:0.5;" x1="238.48" x2="398.8911" y1="334.9769" y2="334.9769"/><ellipse cx="248.48" cy="348.6253" fill="#84BE84" rx="3" ry="3" style="stroke:#038048;stroke-width:1;"/><text fill="#000000" font-family="sans-serif" font-size="14" lengthAdjust="spacing" textLength="136.4111" x="257.48" y="351.972">gererCommandes()</text><ellipse cx="248.48" cy="364.9222" fill="#84BE84" rx="3" ry="3" style="stroke:#038048;stroke-width:1;"/><text fill="#000000" font-family="sans-serif" font-size="14" lengthAdjust="spacing" textLength="99.4014" x="257.48" y="368.2689">verifierStock()</text></g><!--class Administrateur--><g class="entity" data-entity="Administrateur" data-source-line="24" data-uid="ent0005" id="entity_Administrateur"><rect fill="#F1F1F1" height="96.8906" rx="2.5" ry="2.5" style="stroke:#181818;stroke-width:0.5;" width="179.4668" x="341.95" y="438.16"/><ellipse cx="376.2385" cy="454.16" fill="#ADD1B2" rx="11" ry="11" style="stroke:#181818;stroke-width:1;"/><path d="M379.2072,459.8006 Q378.6291,460.0975 377.9885,460.2381 Q377.3479,460.3944 376.6447,460.3944 Q374.1447,460.3944 372.8166,458.7537 Q371.5041,457.0975 371.5041,453.9725 Q371.5041,450.8475 372.8166,449.1912 Q374.1447,447.535 376.6447,447.535 Q377.3479,447.535 377.9885,447.6912 Q378.6447,447.8475 379.2072,448.1444 L379.2072,450.8631 Q378.5822,450.285 377.9885,450.0194 Q377.3947,449.7381 376.7697,449.7381 Q375.426,449.7381 374.7385,450.8162 Q374.051,451.8787 374.051,453.9725 Q374.051,456.0662 374.7385,457.1444 Q375.426,458.2069 376.7697,458.2069 Q377.3947,458.2069 377.9885,457.9412 Q378.5822,457.66 379.2072,457.0819 L379.2072,459.8006 Z " fill="#000000"/><text fill="#000000" font-family="sans-serif" font-size="14" lengthAdjust="spacing" textLength="104.6035" x="394.5248" y="459.0067">Administrateur</text><line style="stroke:#181818;stroke-width:0.5;" x1="342.95" x2="520.4168" y1="470.16" y2="470.16"/><line style="stroke:#181818;stroke-width:0.5;" x1="342.95" x2="520.4168" y1="478.16" y2="478.16"/><ellipse cx="352.95" cy="491.8084" fill="#84BE84" rx="3" ry="3" style="stroke:#038048;stroke-width:1;"/><text fill="#000000" font-family="sans-serif" font-size="14" lengthAdjust="spacing" textLength="127.8525" x="361.95" y="495.1551">gererUtilisateurs()</text><ellipse cx="352.95" cy="508.1053" fill="#84BE84" rx="3" ry="3" style="stroke:#038048;stroke-width:1;"/><text fill="#000000" font-family="sans-serif" font-size="14" lengthAdjust="spacing" textLength="143.582" x="361.95" y="511.452">configurerSysteme()</text><ellipse cx="352.95" cy="524.4022" fill="#84BE84" rx="3" ry="3" style="stroke:#038048;stroke-width:1;"/><text fill="#000000" font-family="sans-serif" font-size="14" lengthAdjust="spacing" textLength="153.4668" x="361.95" y="527.7489">analyserStatistiques()</text></g><!--class Commande--><g class="entity" data-entity="Commande" data-source-line="30" data-uid="ent0006" id="entity_Commande"><rect fill="#F1F1F1" height="162.0781" rx="2.5" ry="2.5" style="stroke:#181818;stroke-width:0.5;" width="165.6309" x="505.87" y="246.08"/><ellipse cx="544.7481" cy="262.08" fill="#ADD1B2" rx="11" ry="11" style="stroke:#181818;stroke-width:1;"/><path d="M547.7169,267.7206 Q547.1388,268.0175 546.4981,268.1581 Q545.8575,268.3144 545.1544,268.3144 Q542.6544,268.3144 541.3263,266.6737 Q540.0138,265.0175 540.0138,261.8925 Q540.0138,258.7675 541.3263,257.1112 Q542.6544,255.455 545.1544,255.455 Q545.8575,255.455 546.4981,255.6112 Q547.1544,255.7675 547.7169,256.0644 L547.7169,258.7831 Q547.0919,258.205 546.4981,257.9394 Q545.9044,257.6581 545.2794,257.6581 Q543.9356,257.6581 543.2481,258.7362 Q542.5606,259.7987 542.5606,261.8925 Q542.5606,263.9862 543.2481,265.0644 Q543.9356,266.1269 545.2794,266.1269 Q545.9044,266.1269 546.4981,265.8612 Q547.0919,265.58 547.7169,265.0019 L547.7169,267.7206 Z " fill="#000000"/><text fill="#000000" font-family="sans-serif" font-size="14" lengthAdjust="spacing" textLength="80.5684" x="564.0544" y="266.9267">Commande</text><line style="stroke:#181818;stroke-width:0.5;" x1="506.87" x2="670.5009" y1="278.08" y2="278.08"/><rect fill="none" height="6" style="stroke:#C82930;stroke-width:1;" width="6" x="513.87" y="288.7284"/><text fill="#000000" font-family="sans-serif" font-size="14" lengthAdjust="spacing" textLength="40.1953" x="525.87" y="295.0751">id: int</text><rect fill="none" height="6" style="stroke:#C82930;stroke-width:1;" width="6" x="513.87" y="305.0253"/><text fill="#000000" font-family="sans-serif" font-size="14" lengthAdjust="spacing" textLength="90.5693" x="525.87" y="311.372">statut: string</text><rect fill="none" height="6" style="stroke:#C82930;stroke-width:1;" width="6" x="513.87" y="321.3222"/><text fill="#000000" font-family="sans-serif" font-size="14" lengthAdjust="spacing" textLength="103.9336" x="525.87" y="327.6689">date: datetime</text><rect fill="none" height="6" style="stroke:#C82930;stroke-width:1;" width="6" x="513.87" y="337.6191"/><text fill="#000000" font-family="sans-serif" font-size="14" lengthAdjust="spacing" textLength="139.6309" x="525.87" y="343.9657">mode_retrait: string</text><line style="stroke:#181818;stroke-width:0.5;" x1="506.87" x2="670.5009" y1="351.2675" y2="351.2675"/><ellipse cx="516.87" cy="364.9159" fill="#84BE84" rx="3" ry="3" style="stroke:#038048;stroke-width:1;"/><text fill="#000000" font-family="sans-serif" font-size="14" lengthAdjust="spacing" textLength="58.8232" x="525.87" y="368.2626">valider()</text><ellipse cx="516.87" cy="381.2128" fill="#84BE84" rx="3" ry="3" style="stroke:#038048;stroke-width:1;"/><text fill="#000000" font-family="sans-serif" font-size="14" lengthAdjust="spacing" textLength="64.3809" x="525.87" y="384.5595">annuler()</text><ellipse cx="516.87" cy="397.5097" fill="#84BE84" rx="3" ry="3" style="stroke:#038048;stroke-width:1;"/><text fill="#000000" font-family="sans-serif" font-size="14" lengthAdjust="spacing" textLength="134.2031" x="525.87" y="400.8564">suivreCommande()</text></g><!--class Menu--><g class="entity" data-entity="Menu" data-source-line="40" data-uid="ent0007" id="entity_Menu"><rect fill="#F1F1F1" height="194.6719" rx="2.5" ry="2.5" style="stroke:#181818;stroke-width:0.5;" width="173.4922" x="501.94" y="565.05"/><ellipse cx="565.2169" cy="581.05" fill="#ADD1B2" rx="11" ry="11" style="stroke:#181818;stroke-width:1;"/><path d="M568.1856,586.6906 Q567.6075,586.9875 566.9669,587.1281 Q566.3262,587.2844 565.6231,587.2844 Q563.1231,587.2844 561.795,585.6438 Q560.4825,583.9875 560.4825,580.8625 Q560.4825,577.7375 561.795,576.0813 Q563.1231,574.425 565.6231,574.425 Q566.3262,574.425 566.9669,574.5813 Q567.6231,574.7375 568.1856,575.0344 L568.1856,577.7531 Q567.5606,577.175 566.9669,576.9094 Q566.3731,576.6281 565.7481,576.6281 Q564.4044,576.6281 563.7169,577.7063 Q563.0294,578.7688 563.0294,580.8625 Q563.0294,582.9563 563.7169,584.0344 Q564.4044,585.0969 565.7481,585.0969 Q566.3731,585.0969 566.9669,584.8313 Q567.5606,584.55 568.1856,583.9719 L568.1856,586.6906 Z " fill="#000000"/><text fill="#000000" font-family="sans-serif" font-size="14" lengthAdjust="spacing" textLength="38.4385" x="585.7169" y="585.8967">Menu</text><line style="stroke:#181818;stroke-width:0.5;" x1="502.94" x2="674.4322" y1="597.05" y2="597.05"/><rect fill="none" height="6" style="stroke:#C82930;stroke-width:1;" width="6" x="509.94" y="607.6984"/><text fill="#000000" font-family="sans-serif" font-size="14" lengthAdjust="spacing" textLength="40.1953" x="521.94" y="614.0451">id: int</text><rect fill="none" height="6" style="stroke:#C82930;stroke-width:1;" width="6" x="509.94" y="623.9953"/><text fill="#000000" font-family="sans-serif" font-size="14" lengthAdjust="spacing" textLength="80.4316" x="521.94" y="630.342">nom: string</text><rect fill="none" height="6" style="stroke:#C82930;stroke-width:1;" width="6" x="509.94" y="640.2922"/><text fill="#000000" font-family="sans-serif" font-size="14" lengthAdjust="spacing" textLength="67.4365" x="521.94" y="646.6389">prix: float</text><rect fill="none" height="6" style="stroke:#C82930;stroke-width:1;" width="6" x="509.94" y="656.5891"/><text fill="#000000" font-family="sans-serif" font-size="14" lengthAdjust="spacing" textLength="127.1963" x="521.94" y="662.9357">description: string</text><rect fill="none" height="6" style="stroke:#C82930;stroke-width:1;" width="6" x="509.94" y="672.8859"/><text fill="#000000" font-family="sans-serif" font-size="14" lengthAdjust="spacing" textLength="115.4453" x="521.94" y="679.2326">categorie: string</text><rect fill="none" height="6" style="stroke:#C82930;stroke-width:1;" width="6" x="509.94" y="689.1828"/><text fill="#000000" font-family="sans-serif" font-size="14" lengthAdjust="spacing" textLength="124.0176" x="521.94" y="695.5295">disponibilite: bool</text><line style="stroke:#181818;stroke-width:0.5;" x1="502.94" x2="674.4322" y1="702.8313" y2="702.8313"/><ellipse cx="512.94" cy="716.4797" fill="#84BE84" rx="3" ry="3" style="stroke:#038048;stroke-width:1;"/><text fill="#000000" font-family="sans-serif" font-size="14" lengthAdjust="spacing" textLength="102.6279" x="521.94" y="719.8264">afficherMenu()</text><ellipse cx="512.94" cy="732.7766" fill="#84BE84" rx="3" ry="3" style="stroke:#038048;stroke-width:1;"/><text fill="#000000" font-family="sans-serif" font-size="14" lengthAdjust="spacing" textLength="107.5293" x="521.94" y="736.1232">modifierMenu()</text><ellipse cx="512.94" cy="749.0734" fill="#84BE84" rx="3" ry="3" style="stroke:#038048;stroke-width:1;"/><text fill="#000000" font-family="sans-serif" font-size="14" lengthAdjust="spacing" textLength="147.4922" x="521.94" y="752.4201">verifierDisponibilite()</text></g><!--class Paiement--><g class="entity" data-entity="Paiement" data-source-line="52" data-uid="ent0008" id="entity_Paiement"><rect fill="#F1F1F1" height="162.0781" rx="2.5" ry="2.5" style="stroke:#181818;stroke-width:0.5;" width="146.6338" x="710.37" y="581.35"/><ellipse cx="747.1932" cy="597.35" fill="#ADD1B2" rx="11" ry="11" style="stroke:#181818;stroke-width:1;"/><path d="M750.162,602.9906 Q749.5839,603.2875 748.9432,603.4281 Q748.3026,603.5844 747.5995,603.5844 Q745.0995,603.5844 743.7714,601.9437 Q742.4589,600.2875 742.4589,597.1625 Q742.4589,594.0375 743.7714,592.3812 Q745.0995,590.725 747.5995,590.725 Q748.3026,590.725 748.9432,590.8812 Q749.5995,591.0375 750.162,591.3344 L750.162,594.0531 Q749.537,593.475 748.9432,593.2094 Q748.3495,592.9281 747.7245,592.9281 Q746.3807,592.9281 745.6932,594.0062 Q745.0057,595.0687 745.0057,597.1625 Q745.0057,599.2562 745.6932,600.3344 Q746.3807,601.3969 747.7245,601.3969 Q748.3495,601.3969 748.9432,601.1312 Q749.537,600.85 750.162,600.2719 L750.162,602.9906 Z " fill="#000000"/><text fill="#000000" font-family="sans-serif" font-size="14" lengthAdjust="spacing" textLength="66.1377" x="766.0429" y="602.1967">Paiement</text><line style="stroke:#181818;stroke-width:0.5;" x1="711.37" x2="856.0038" y1="613.35" y2="613.35"/><rect fill="none" height="6" style="stroke:#C82930;stroke-width:1;" width="6" x="718.37" y="623.9984"/><text fill="#000000" font-family="sans-serif" font-size="14" lengthAdjust="spacing" textLength="40.1953" x="730.37" y="630.3451">id: int</text><rect fill="none" height="6" style="stroke:#C82930;stroke-width:1;" width="6" x="718.37" y="640.2953"/><text fill="#000000" font-family="sans-serif" font-size="14" lengthAdjust="spacing" textLength="100.126" x="730.37" y="646.642">montant: float</text><rect fill="none" height="6" style="stroke:#C82930;stroke-width:1;" width="6" x="718.37" y="656.5922"/><text fill="#000000" font-family="sans-serif" font-size="14" lengthAdjust="spacing" textLength="89.0586" x="730.37" y="662.9389">mode: string</text><rect fill="none" height="6" style="stroke:#C82930;stroke-width:1;" width="6" x="718.37" y="672.8891"/><text fill="#000000" font-family="sans-serif" font-size="14" lengthAdjust="spacing" textLength="90.5693" x="730.37" y="679.2357">statut: string</text><line style="stroke:#181818;stroke-width:0.5;" x1="711.37" x2="856.0038" y1="686.5375" y2="686.5375"/><ellipse cx="721.37" cy="700.1859" fill="#84BE84" rx="3" ry="3" style="stroke:#038048;stroke-width:1;"/><text fill="#000000" font-family="sans-serif" font-size="14" lengthAdjust="spacing" textLength="120.6338" x="730.37" y="703.5326">traiterPaiement()</text><ellipse cx="721.37" cy="716.4828" fill="#84BE84" rx="3" ry="3" style="stroke:#038048;stroke-width:1;"/><text fill="#000000" font-family="sans-serif" font-size="14" lengthAdjust="spacing" textLength="119.0957" x="730.37" y="719.8295">genererFacture()</text><ellipse cx="721.37" cy="732.7797" fill="#84BE84" rx="3" ry="3" style="stroke:#038048;stroke-width:1;"/><text fill="#000000" font-family="sans-serif" font-size="14" lengthAdjust="spacing" textLength="92.6748" x="730.37" y="736.1264">rembourser()</text></g><!--class Stock--><g class="entity" data-entity="Stock" data-source-line="62" data-uid="ent0009" id="entity_Stock"><rect fill="#F1F1F1" height="162.0781" rx="2.5" ry="2.5" style="stroke:#181818;stroke-width:0.5;" width="207.7607" x="335.8" y="836.72"/><ellipse cx="416.0573" cy="852.72" fill="#ADD1B2" rx="11" ry="11" style="stroke:#181818;stroke-width:1;"/><path d="M419.0261,858.3606 Q418.4479,858.6575 417.8073,858.7981 Q417.1667,858.9544 416.4636,858.9544 Q413.9636,858.9544 412.6354,857.3137 Q411.3229,855.6575 411.3229,852.5325 Q411.3229,849.4075 412.6354,847.7512 Q413.9636,846.095 416.4636,846.095 Q417.1667,846.095 417.8073,846.2512 Q418.4636,846.4075 419.0261,846.7044 L419.0261,849.4231 Q418.4011,848.845 417.8073,848.5794 Q417.2136,848.2981 416.5886,848.2981 Q415.2448,848.2981 414.5573,849.3762 Q413.8698,850.4387 413.8698,852.5325 Q413.8698,854.6262 414.5573,855.7044 Q415.2448,856.7669 416.5886,856.7669 Q417.2136,856.7669 417.8073,856.5012 Q418.4011,856.22 419.0261,855.6419 L419.0261,858.3606 Z " fill="#000000"/><text fill="#000000" font-family="sans-serif" font-size="14" lengthAdjust="spacing" textLength="38.7461" x="436.5573" y="857.5667">Stock</text><line style="stroke:#181818;stroke-width:0.5;" x1="336.8" x2="542.5607" y1="868.72" y2="868.72"/><rect fill="none" height="6" style="stroke:#C82930;stroke-width:1;" width="6" x="343.8" y="879.3684"/><text fill="#000000" font-family="sans-serif" font-size="14" lengthAdjust="spacing" textLength="40.1953" x="355.8" y="885.7151">id: int</text><rect fill="none" height="6" style="stroke:#C82930;stroke-width:1;" width="6" x="343.8" y="895.6653"/><text fill="#000000" font-family="sans-serif" font-size="14" lengthAdjust="spacing" textLength="121.126" x="355.8" y="902.012">ingredient: string</text><rect fill="none" height="6" style="stroke:#C82930;stroke-width:1;" width="6" x="343.8" y="911.9622"/><text fill="#000000" font-family="sans-serif" font-size="14" lengthAdjust="spacing" textLength="86.1123" x="355.8" y="918.3089">quantite: int</text><rect fill="none" height="6" style="stroke:#C82930;stroke-width:1;" width="6" x="343.8" y="928.2591"/><text fill="#000000" font-family="sans-serif" font-size="14" lengthAdjust="spacing" textLength="181.7607" x="355.8" y="934.6057">date_expiration: datetime</text><line style="stroke:#181818;stroke-width:0.5;" x1="336.8" x2="542.5607" y1="941.9075" y2="941.9075"/><ellipse cx="346.8" cy="955.5559" fill="#84BE84" rx="3" ry="3" style="stroke:#038048;stroke-width:1;"/><text fill="#000000" font-family="sans-serif" font-size="14" lengthAdjust="spacing" textLength="134.1689" x="355.8" y="958.9026">mettreAJourStock()</text><ellipse cx="346.8" cy="971.8528" fill="#84BE84" rx="3" ry="3" style="stroke:#038048;stroke-width:1;"/><text fill="#000000" font-family="sans-serif" font-size="14" lengthAdjust="spacing" textLength="147.4922" x="355.8" y="975.1995">verifierDisponibilite()</text><ellipse cx="346.8" cy="988.1497" fill="#84BE84" rx="3" ry="3" style="stroke:#038048;stroke-width:1;"/><text fill="#000000" font-family="sans-serif" font-size="14" lengthAdjust="spacing" textLength="113.8389" x="355.8" y="991.4964">alerterRupture()</text></g><!--class Reservation--><g class="entity" data-entity="Reservation" data-source-line="72" data-uid="ent0010" id="entity_Reservation"><rect fill="#F1F1F1" height="162.0781" rx="2.5" ry="2.5" style="stroke:#181818;stroke-width:0.5;" width="174.0664" x="706.65" y="246.08"/><ellipse cx="747.9214" cy="262.08" fill="#ADD1B2" rx="11" ry="11" style="stroke:#181818;stroke-width:1;"/><path d="M750.8901,267.7206 Q750.312,268.0175 749.6714,268.1581 Q749.0308,268.3144 748.3276,268.3144 Q745.8276,268.3144 744.4995,266.6737 Q743.187,265.0175 743.187,261.8925 Q743.187,258.7675 744.4995,257.1112 Q745.8276,255.455 748.3276,255.455 Q749.0308,255.455 749.6714,255.6112 Q750.3276,255.7675 750.8901,256.0644 L750.8901,258.7831 Q750.2651,258.205 749.6714,257.9394 Q749.0776,257.6581 748.4526,257.6581 Q747.1089,257.6581 746.4214,258.7362 Q745.7339,259.7987 745.7339,261.8925 Q745.7339,263.9862 746.4214,265.0644 Q747.1089,266.1269 748.4526,266.1269 Q749.0776,266.1269 749.6714,265.8612 Q750.2651,265.58 750.8901,265.0019 L750.8901,267.7206 Z " fill="#000000"/><text fill="#000000" font-family="sans-serif" font-size="14" lengthAdjust="spacing" textLength="83.6855" x="767.7595" y="266.9267">Reservation</text><line style="stroke:#181818;stroke-width:0.5;" x1="707.65" x2="879.7164" y1="278.08" y2="278.08"/><rect fill="none" height="6" style="stroke:#C82930;stroke-width:1;" width="6" x="714.65" y="288.7284"/><text fill="#000000" font-family="sans-serif" font-size="14" lengthAdjust="spacing" textLength="40.1953" x="726.65" y="295.0751">id: int</text><rect fill="none" height="6" style="stroke:#C82930;stroke-width:1;" width="6" x="714.65" y="305.0253"/><text fill="#000000" font-family="sans-serif" font-size="14" lengthAdjust="spacing" textLength="101.2607" x="726.65" y="311.372">table_num: int</text><rect fill="none" height="6" style="stroke:#C82930;stroke-width:1;" width="6" x="714.65" y="321.3222"/><text fill="#000000" font-family="sans-serif" font-size="14" lengthAdjust="spacing" textLength="77.5264" x="726.65" y="327.6689">etat: string</text><rect fill="none" height="6" style="stroke:#C82930;stroke-width:1;" width="6" x="714.65" y="337.6191"/><text fill="#000000" font-family="sans-serif" font-size="14" lengthAdjust="spacing" textLength="86.8506" x="726.65" y="343.9657">capacite: int</text><line style="stroke:#181818;stroke-width:0.5;" x1="707.65" x2="879.7164" y1="351.2675" y2="351.2675"/><ellipse cx="717.65" cy="364.9159" fill="#84BE84" rx="3" ry="3" style="stroke:#038048;stroke-width:1;"/><text fill="#000000" font-family="sans-serif" font-size="14" lengthAdjust="spacing" textLength="108.1309" x="726.65" y="368.2626">reserverTable()</text><ellipse cx="717.65" cy="381.2128" fill="#84BE84" rx="3" ry="3" style="stroke:#038048;stroke-width:1;"/><text fill="#000000" font-family="sans-serif" font-size="14" lengthAdjust="spacing" textLength="148.0664" x="726.65" y="384.5595">annulerReservation()</text><ellipse cx="717.65" cy="397.5097" fill="#84BE84" rx="3" ry="3" style="stroke:#038048;stroke-width:1;"/><text fill="#000000" font-family="sans-serif" font-size="14" lengthAdjust="spacing" textLength="147.4922" x="726.65" y="400.8564">verifierDisponibilite()</text></g><!--reverse link Utilisateur to Etudiant--><g class="link" data-entity-1="Utilisateur" data-entity-2="Etudiant" data-source-line="82" data-uid="lnk11" id="link_Utilisateur_Etudiant"><path codeLine="82" d="M350.3973,157.4957 C306.5773,186.9257 267.68,213.21 219.68,246.08 C204.53,256.46 188.31,267.68 172.98,278.34 " fill="none" id="Utilisateur-backto-Etudiant" style="stroke:#181818;stroke-width:1;"/><polygon fill="none" points="365.34,147.46,347.0521,152.5148,353.7425,162.4766,365.34,147.46" style="stroke:#181818;stroke-width:1;"/></g><!--reverse link Utilisateur to Personnel--><g class="link" data-entity-1="Utilisateur" data-entity-2="Personnel" data-source-line="83" data-uid="lnk12" id="link_Utilisateur_Personnel"><path codeLine="83" d="M398.4631,184.9802 C377.9631,221.2502 363.29,247.2 345.63,278.45 " fill="none" id="Utilisateur-backto-Personnel" style="stroke:#181818;stroke-width:1;"/><polygon fill="none" points="407.32,169.31,393.2397,182.0279,403.6865,187.9325,407.32,169.31" style="stroke:#181818;stroke-width:1;"/></g><!--reverse link Utilisateur to Administrateur--><g class="link" data-entity-1="Utilisateur" data-entity-2="Administrateur" data-source-line="84" data-uid="lnk13" id="link_Utilisateur_Administrateur"><path codeLine="84" d="M447.4796,187.2649 C443.2196,267.8349 437.74,371.31 434.21,437.84 " fill="none" id="Utilisateur-backto-Administrateur" style="stroke:#181818;stroke-width:1;"/><polygon fill="none" points="448.43,169.29,441.488,186.9481,453.4712,187.5817,448.43,169.29" style="stroke:#181818;stroke-width:1;"/></g><!--link Utilisateur to Commande--><g class="link" data-entity-1="Utilisateur" data-entity-2="Commande" data-source-line="85" data-uid="lnk14" id="link_Utilisateur_Commande"><path codeLine="85" d="M498.73,169.31 C512.91,194.02 528.51,221.23 542.69,245.94 " fill="none" id="Utilisateur-Commande" style="stroke:#181818;stroke-width:1;"/><text fill="#000000" font-family="sans-serif" font-size="13" lengthAdjust="spacing" textLength="28.4883" x="526.68" y="212.1469">cr&#233;e</text><text fill="#000000" font-family="sans-serif" font-size="13" lengthAdjust="spacing" textLength="8.271" x="494.3554" y="189.0114">1</text><text fill="#000000" font-family="sans-serif" font-size="13" lengthAdjust="spacing" textLength="6.5" x="532.3486" y="235.1148">*</text></g><!--link Commande to Menu--><g class="link" data-entity-1="Commande" data-entity-2="Menu" data-source-line="86" data-uid="lnk15" id="link_Commande_Menu"><path codeLine="86" d="M588.68,408.37 C588.68,455.37 588.68,515.03 588.68,564.62 " fill="none" id="Commande-Menu" style="stroke:#181818;stroke-width:1;"/><text fill="#000000" font-family="sans-serif" font-size="13" lengthAdjust="spacing" textLength="53.3838" x="589.68" y="491.1669">contient</text><text fill="#000000" font-family="sans-serif" font-size="13" lengthAdjust="spacing" textLength="8.271" x="580.3353" y="428.3472">1</text><text fill="#000000" font-family="sans-serif" font-size="13" lengthAdjust="spacing" textLength="6.5" x="582.4776" y="553.9613">*</text></g><!--link Commande to Paiement--><g class="link" data-entity-1="Commande" data-entity-2="Paiement" data-source-line="87" data-uid="lnk16" id="link_Commande_Paiement"><path codeLine="87" d="M635.64,408.37 C666.24,460.66 706.01,528.64 736.63,580.97 " fill="none" id="Commande-Paiement" style="stroke:#181818;stroke-width:1;"/><text fill="#000000" font-family="sans-serif" font-size="13" lengthAdjust="spacing" textLength="60.3218" x="710.68" y="491.1669">associ&#233; &#224;</text><text fill="#000000" font-family="sans-serif" font-size="13" lengthAdjust="spacing" textLength="8.271" x="631.4777" y="428.3472">1</text><text fill="#000000" font-family="sans-serif" font-size="13" lengthAdjust="spacing" textLength="8.271" x="724.2539" y="570.4011">1</text></g><!--link Menu to Stock--><g class="link" data-entity-1="Menu" data-entity-2="Stock" data-source-line="88" data-uid="lnk17" id="link_Menu_Stock"><path codeLine="88" d="M531.93,759.9 C517.04,785.21 501.15,812.23 486.83,836.59 " fill="none" id="Menu-Stock" style="stroke:#181818;stroke-width:1;"/><text fill="#000000" font-family="sans-serif" font-size="13" lengthAdjust="spacing" textLength="38.9429" x="515.68" y="802.7869">utilise</text><text fill="#000000" font-family="sans-serif" font-size="13" lengthAdjust="spacing" textLength="8.271" x="519.4782" y="779.6837">1</text><text fill="#000000" font-family="sans-serif" font-size="13" lengthAdjust="spacing" textLength="6.5" x="484.7843" y="825.7657">*</text></g><!--link Utilisateur to Reservation--><g class="link" data-entity-1="Utilisateur" data-entity-2="Reservation" data-source-line="89" data-uid="lnk18" id="link_Utilisateur_Reservation"><path codeLine="89" d="M539.9,145.16 C584.82,174.55 640.19,211.52 688.68,246.08 C694.47,250.21 700.39,254.5 706.34,258.88 " fill="none" id="Utilisateur-Reservation" style="stroke:#181818;stroke-width:1;"/><text fill="#000000" font-family="sans-serif" font-size="13" lengthAdjust="spacing" textLength="53.6313" x="645.68" y="212.1469">effectue</text><text fill="#000000" font-family="sans-serif" font-size="13" lengthAdjust="spacing" textLength="8.271" x="547.4654" y="146.3416">1</text><text fill="#000000" font-family="sans-serif" font-size="13" lengthAdjust="spacing" textLength="6.5" x="692.0345" y="248.9708">*</text></g><!--link Administrateur to Stock--><g class="link" data-entity-1="Administrateur" data-entity-2="Stock" data-source-line="90" data-uid="lnk19" id="link_Administrateur_Stock"><path codeLine="90" d="M429.54,535.52 C429.18,545.29 428.87,555.5 428.68,565.05 C427.01,651.55 425.66,673.25 428.68,759.72 C429.56,784.71 431.21,811.9 432.98,836.52 " fill="none" id="Administrateur-Stock" style="stroke:#181818;stroke-width:1;"/><text fill="#000000" font-family="sans-serif" font-size="13" lengthAdjust="spacing" textLength="54.8818" x="429.68" y="666.9569">surveille</text><text fill="#000000" font-family="sans-serif" font-size="13" lengthAdjust="spacing" textLength="8.271" x="424.0391" y="825.6895">1</text></g><!--SRC=[ZLJBRjim4BphAmXV-WXyw5Ne9MXI50KA14bxDcXffIpAXx8aZHXj_wLNVuT_h4j6eYaPBkA332x9sTdPuRuHDoXxabg3Q44qIZe7JaXzF2YqT3nKAIH-U5Jef8T0ubSb-BSMsDO2ZHzNnkfQE4ze-Z42Mg9Qn9nLBTIYKrQ-NBmIZTLQcXRexRinCiXziMgiSK5ve2_el2Ly2i1xVwgHsQqFBKhZCoqJD93Tm1YV4RWI1CsZf1xeazM3Xvn5snOx1BeZsw4g4zm1EMiCg9o1h885B0Cco5I9owWxe8Jwu6tpimIzRZKQheTAIKUOGcjNgj1X7tZxOUyyw1DpQQJQkvX3UaQC-hWorSJgGjySNmj-qQQMizVfwr7366I9O4F0d76fwaugB3ieZGcgMBk0EuA9ISdk6vZmQaSDXC-bUPWek8Pmy6ZDucp3v7ks2onBGpTOWrlMEDQujLPDfBiEcqUWIEdC5xFWrDQR4clc6OdSeiAKyygqDJvPiombohjyBUUzkH99VpRgc2AJwi54ztoMZMURv321tbfsKkf69fWCUO4Tfo9e4SpI5K-1IIVLJeUZHpRmF20xEJLXPXhM3xmdkFxA5AP7y7yDnrwmUxZ8-p2CnMJczy2bx5Ao2_ozt2hOy1WeWy1IdZbaaCsidAXMH0Vw7Z6MTYvIlyOAvSpy-7kzpgFgV2VFcFEj-QIOxQy-h0IVMBrVdHvvBHgUsb3bG74elRKwZX8Vktj-Xl-oSsl1Qji6ZmTn_5kbgmNKYtzg4H8Tk4IhR5OjeEk0pGdLOlgDgITC5xW3g1Jy0m00]--></g></svg>