<svg xmlns="http://www.w3.org/2000/svg" xmlns:xlink="http://www.w3.org/1999/xlink" contentStyleType="text/css" data-diagram-type="CLASS" height="925px" preserveAspectRatio="none" style="width:905px;height:925px;background:#FFFFFF;" version="1.1" viewBox="0 0 905 925" width="905px" zoomAndPan="magnify"><defs/><g><!--class Utilisateur--><g class="entity" data-entity="Utilisateur" data-source-line="2" data-uid="ent0002" id="entity_Utilisateur"><rect fill="#F1F1F1" height="162.0781" rx="2.5" ry="2.5" style="stroke:#181818;stroke-width:0.5;" width="173.7588" x="311.8" y="7"/><ellipse cx="358.4245" cy="23" fill="#ADD1B2" rx="11" ry="11" style="stroke:#181818;stroke-width:1;"/><path d="M361.3933,28.6406 Q360.8151,28.9375 360.1745,29.0781 Q359.5339,29.2344 358.8308,29.2344 Q356.3308,29.2344 355.0026,27.5938 Q353.6901,25.9375 353.6901,22.8125 Q353.6901,19.6875 355.0026,18.0313 Q356.3308,16.375 358.8308,16.375 Q359.5339,16.375 360.1745,16.5313 Q360.8308,16.6875 361.3933,16.9844 L361.3933,19.7031 Q360.7683,19.125 360.1745,18.8594 Q359.5808,18.5781 358.9558,18.5781 Q357.612,18.5781 356.9245,19.6563 Q356.237,20.7188 356.237,22.8125 Q356.237,24.9063 356.9245,25.9844 Q357.612,27.0469 358.9558,27.0469 Q359.5808,27.0469 360.1745,26.7813 Q360.7683,26.5 361.3933,25.9219 L361.3933,28.6406 Z " fill="#000000"/><text fill="#000000" font-family="sans-serif" font-size="14" lengthAdjust="spacing" textLength="72.0098" x="378.9245" y="27.8467">Utilisateur</text><line style="stroke:#181818;stroke-width:0.5;" x1="312.8" x2="484.5588" y1="39" y2="39"/><rect fill="none" height="6" style="stroke:#C82930;stroke-width:1;" width="6" x="319.8" y="49.6484"/><text fill="#000000" font-family="sans-serif" font-size="14" lengthAdjust="spacing" textLength="40.1953" x="331.8" y="55.9951">id: int</text><rect fill="none" height="6" style="stroke:#C82930;stroke-width:1;" width="6" x="319.8" y="65.9453"/><text fill="#000000" font-family="sans-serif" font-size="14" lengthAdjust="spacing" textLength="80.4316" x="331.8" y="72.292">nom: string</text><rect fill="none" height="6" style="stroke:#C82930;stroke-width:1;" width="6" x="319.8" y="82.2422"/><text fill="#000000" font-family="sans-serif" font-size="14" lengthAdjust="spacing" textLength="87.9648" x="331.8" y="88.5889">email: string</text><rect fill="none" height="6" style="stroke:#C82930;stroke-width:1;" width="6" x="319.8" y="98.5391"/><text fill="#000000" font-family="sans-serif" font-size="14" lengthAdjust="spacing" textLength="77.8682" x="331.8" y="104.8857">solde: float</text><line style="stroke:#181818;stroke-width:0.5;" x1="312.8" x2="484.5588" y1="112.1875" y2="112.1875"/><ellipse cx="322.8" cy="125.8359" fill="#84BE84" rx="3" ry="3" style="stroke:#038048;stroke-width:1;"/><text fill="#000000" font-family="sans-serif" font-size="14" lengthAdjust="spacing" textLength="95.1699" x="331.8" y="129.1826">commander()</text><ellipse cx="322.8" cy="142.1328" fill="#84BE84" rx="3" ry="3" style="stroke:#038048;stroke-width:1;"/><text fill="#000000" font-family="sans-serif" font-size="14" lengthAdjust="spacing" textLength="51.0439" x="331.8" y="145.4795">payer()</text><ellipse cx="322.8" cy="158.4297" fill="#84BE84" rx="3" ry="3" style="stroke:#038048;stroke-width:1;"/><text fill="#000000" font-family="sans-serif" font-size="14" lengthAdjust="spacing" textLength="147.7588" x="331.8" y="161.7764">consulterHistorique()</text></g><!--class Etudiant--><g class="entity" data-entity="Etudiant" data-source-line="12" data-uid="ent0003" id="entity_Etudiant"><rect fill="#F1F1F1" height="96.8906" rx="2.5" ry="2.5" style="stroke:#181818;stroke-width:0.5;" width="195.3672" x="7" y="278.68"/><ellipse cx="70.9707" cy="294.68" fill="#ADD1B2" rx="11" ry="11" style="stroke:#181818;stroke-width:1;"/><path d="M73.9395,300.3206 Q73.3613,300.6175 72.7207,300.7581 Q72.0801,300.9144 71.377,300.9144 Q68.877,300.9144 67.5488,299.2737 Q66.2363,297.6175 66.2363,294.4925 Q66.2363,291.3675 67.5488,289.7112 Q68.877,288.055 71.377,288.055 Q72.0801,288.055 72.7207,288.2112 Q73.377,288.3675 73.9395,288.6644 L73.9395,291.3831 Q73.3145,290.805 72.7207,290.5394 Q72.127,290.2581 71.502,290.2581 Q70.1582,290.2581 69.4707,291.3362 Q68.7832,292.3987 68.7832,294.4925 Q68.7832,296.5862 69.4707,297.6644 Q70.1582,298.7269 71.502,298.7269 Q72.127,298.7269 72.7207,298.4612 Q73.3145,298.18 73.9395,297.6019 L73.9395,300.3206 Z " fill="#000000"/><text fill="#000000" font-family="sans-serif" font-size="14" lengthAdjust="spacing" textLength="58.9258" x="91.4707" y="299.5267">Etudiant</text><line style="stroke:#181818;stroke-width:0.5;" x1="8" x2="201.3672" y1="310.68" y2="310.68"/><rect fill="none" height="6" style="stroke:#C82930;stroke-width:1;" width="6" x="15" y="321.3284"/><text fill="#000000" font-family="sans-serif" font-size="14" lengthAdjust="spacing" textLength="169.3672" x="27" y="327.6751">numero_etudiant: string</text><line style="stroke:#181818;stroke-width:0.5;" x1="8" x2="201.3672" y1="334.9769" y2="334.9769"/><ellipse cx="18" cy="348.6253" fill="#84BE84" rx="3" ry="3" style="stroke:#038048;stroke-width:1;"/><text fill="#000000" font-family="sans-serif" font-size="14" lengthAdjust="spacing" textLength="134.4219" x="27" y="351.972">rechargerCompte()</text><ellipse cx="18" cy="364.9222" fill="#84BE84" rx="3" ry="3" style="stroke:#038048;stroke-width:1;"/><text fill="#000000" font-family="sans-serif" font-size="14" lengthAdjust="spacing" textLength="104.5625" x="27" y="368.2689">modifierProfil()</text></g><!--class Personnel--><g class="entity" data-entity="Personnel" data-source-line="18" data-uid="ent0004" id="entity_Personnel"><rect fill="#F1F1F1" height="96.8906" rx="2.5" ry="2.5" style="stroke:#181818;stroke-width:0.5;" width="162.4111" x="174.48" y="534.05"/><ellipse cx="217.151" cy="550.05" fill="#ADD1B2" rx="11" ry="11" style="stroke:#181818;stroke-width:1;"/><path d="M220.1198,555.6906 Q219.5417,555.9875 218.901,556.1281 Q218.2604,556.2844 217.5573,556.2844 Q215.0573,556.2844 213.7292,554.6438 Q212.4167,552.9875 212.4167,549.8625 Q212.4167,546.7375 213.7292,545.0813 Q215.0573,543.425 217.5573,543.425 Q218.2604,543.425 218.901,543.5813 Q219.5573,543.7375 220.1198,544.0344 L220.1198,546.7531 Q219.4948,546.175 218.901,545.9094 Q218.3073,545.6281 217.6823,545.6281 Q216.3385,545.6281 215.651,546.7063 Q214.9635,547.7688 214.9635,549.8625 Q214.9635,551.9563 215.651,553.0344 Q216.3385,554.0969 217.6823,554.0969 Q218.3073,554.0969 218.901,553.8313 Q219.4948,553.55 220.1198,552.9719 L220.1198,555.6906 Z " fill="#000000"/><text fill="#000000" font-family="sans-serif" font-size="14" lengthAdjust="spacing" textLength="68.9199" x="237.3002" y="554.8967">Personnel</text><line style="stroke:#181818;stroke-width:0.5;" x1="175.48" x2="335.8911" y1="566.05" y2="566.05"/><rect fill="none" height="6" style="stroke:#C82930;stroke-width:1;" width="6" x="182.48" y="576.6984"/><text fill="#000000" font-family="sans-serif" font-size="14" lengthAdjust="spacing" textLength="76.1797" x="194.48" y="583.0451">role: string</text><line style="stroke:#181818;stroke-width:0.5;" x1="175.48" x2="335.8911" y1="590.3469" y2="590.3469"/><ellipse cx="185.48" cy="603.9953" fill="#84BE84" rx="3" ry="3" style="stroke:#038048;stroke-width:1;"/><text fill="#000000" font-family="sans-serif" font-size="14" lengthAdjust="spacing" textLength="136.4111" x="194.48" y="607.342">gererCommandes()</text><ellipse cx="185.48" cy="620.2922" fill="#84BE84" rx="3" ry="3" style="stroke:#038048;stroke-width:1;"/><text fill="#000000" font-family="sans-serif" font-size="14" lengthAdjust="spacing" textLength="99.4014" x="194.48" y="623.6389">verifierStock()</text></g><!--class Administrateur--><g class="entity" data-entity="Administrateur" data-source-line="24" data-uid="ent0005" id="entity_Administrateur"><rect fill="#F1F1F1" height="96.8906" rx="2.5" ry="2.5" style="stroke:#181818;stroke-width:0.5;" width="179.4668" x="308.95" y="278.68"/><ellipse cx="343.2385" cy="294.68" fill="#ADD1B2" rx="11" ry="11" style="stroke:#181818;stroke-width:1;"/><path d="M346.2072,300.3206 Q345.6291,300.6175 344.9885,300.7581 Q344.3479,300.9144 343.6447,300.9144 Q341.1447,300.9144 339.8166,299.2737 Q338.5041,297.6175 338.5041,294.4925 Q338.5041,291.3675 339.8166,289.7112 Q341.1447,288.055 343.6447,288.055 Q344.3479,288.055 344.9885,288.2112 Q345.6447,288.3675 346.2072,288.6644 L346.2072,291.3831 Q345.5822,290.805 344.9885,290.5394 Q344.3947,290.2581 343.7697,290.2581 Q342.426,290.2581 341.7385,291.3362 Q341.051,292.3987 341.051,294.4925 Q341.051,296.5862 341.7385,297.6644 Q342.426,298.7269 343.7697,298.7269 Q344.3947,298.7269 344.9885,298.4612 Q345.5822,298.18 346.2072,297.6019 L346.2072,300.3206 Z " fill="#000000"/><text fill="#000000" font-family="sans-serif" font-size="14" lengthAdjust="spacing" textLength="104.6035" x="361.5248" y="299.5267">Administrateur</text><line style="stroke:#181818;stroke-width:0.5;" x1="309.95" x2="487.4168" y1="310.68" y2="310.68"/><line style="stroke:#181818;stroke-width:0.5;" x1="309.95" x2="487.4168" y1="318.68" y2="318.68"/><ellipse cx="319.95" cy="332.3284" fill="#84BE84" rx="3" ry="3" style="stroke:#038048;stroke-width:1;"/><text fill="#000000" font-family="sans-serif" font-size="14" lengthAdjust="spacing" textLength="127.8525" x="328.95" y="335.6751">gererUtilisateurs()</text><ellipse cx="319.95" cy="348.6253" fill="#84BE84" rx="3" ry="3" style="stroke:#038048;stroke-width:1;"/><text fill="#000000" font-family="sans-serif" font-size="14" lengthAdjust="spacing" textLength="143.582" x="328.95" y="351.972">configurerSysteme()</text><ellipse cx="319.95" cy="364.9222" fill="#84BE84" rx="3" ry="3" style="stroke:#038048;stroke-width:1;"/><text fill="#000000" font-family="sans-serif" font-size="14" lengthAdjust="spacing" textLength="153.4668" x="328.95" y="368.2689">analyserStatistiques()</text></g><!--class Commande--><g class="entity" data-entity="Commande" data-source-line="30" data-uid="ent0006" id="entity_Commande"><rect fill="#F1F1F1" height="162.0781" rx="2.5" ry="2.5" style="stroke:#181818;stroke-width:0.5;" width="165.6309" x="523.87" y="246.08"/><ellipse cx="562.7481" cy="262.08" fill="#ADD1B2" rx="11" ry="11" style="stroke:#181818;stroke-width:1;"/><path d="M565.7169,267.7206 Q565.1388,268.0175 564.4981,268.1581 Q563.8575,268.3144 563.1544,268.3144 Q560.6544,268.3144 559.3263,266.6737 Q558.0138,265.0175 558.0138,261.8925 Q558.0138,258.7675 559.3263,257.1112 Q560.6544,255.455 563.1544,255.455 Q563.8575,255.455 564.4981,255.6112 Q565.1544,255.7675 565.7169,256.0644 L565.7169,258.7831 Q565.0919,258.205 564.4981,257.9394 Q563.9044,257.6581 563.2794,257.6581 Q561.9356,257.6581 561.2481,258.7362 Q560.5606,259.7987 560.5606,261.8925 Q560.5606,263.9862 561.2481,265.0644 Q561.9356,266.1269 563.2794,266.1269 Q563.9044,266.1269 564.4981,265.8612 Q565.0919,265.58 565.7169,265.0019 L565.7169,267.7206 Z " fill="#000000"/><text fill="#000000" font-family="sans-serif" font-size="14" lengthAdjust="spacing" textLength="80.5684" x="582.0544" y="266.9267">Commande</text><line style="stroke:#181818;stroke-width:0.5;" x1="524.87" x2="688.5009" y1="278.08" y2="278.08"/><rect fill="none" height="6" style="stroke:#C82930;stroke-width:1;" width="6" x="531.87" y="288.7284"/><text fill="#000000" font-family="sans-serif" font-size="14" lengthAdjust="spacing" textLength="40.1953" x="543.87" y="295.0751">id: int</text><rect fill="none" height="6" style="stroke:#C82930;stroke-width:1;" width="6" x="531.87" y="305.0253"/><text fill="#000000" font-family="sans-serif" font-size="14" lengthAdjust="spacing" textLength="90.5693" x="543.87" y="311.372">statut: string</text><rect fill="none" height="6" style="stroke:#C82930;stroke-width:1;" width="6" x="531.87" y="321.3222"/><text fill="#000000" font-family="sans-serif" font-size="14" lengthAdjust="spacing" textLength="103.9336" x="543.87" y="327.6689">date: datetime</text><rect fill="none" height="6" style="stroke:#C82930;stroke-width:1;" width="6" x="531.87" y="337.6191"/><text fill="#000000" font-family="sans-serif" font-size="14" lengthAdjust="spacing" textLength="139.6309" x="543.87" y="343.9657">mode_retrait: string</text><line style="stroke:#181818;stroke-width:0.5;" x1="524.87" x2="688.5009" y1="351.2675" y2="351.2675"/><ellipse cx="534.87" cy="364.9159" fill="#84BE84" rx="3" ry="3" style="stroke:#038048;stroke-width:1;"/><text fill="#000000" font-family="sans-serif" font-size="14" lengthAdjust="spacing" textLength="58.8232" x="543.87" y="368.2626">valider()</text><ellipse cx="534.87" cy="381.2128" fill="#84BE84" rx="3" ry="3" style="stroke:#038048;stroke-width:1;"/><text fill="#000000" font-family="sans-serif" font-size="14" lengthAdjust="spacing" textLength="64.3809" x="543.87" y="384.5595">annuler()</text><ellipse cx="534.87" cy="397.5097" fill="#84BE84" rx="3" ry="3" style="stroke:#038048;stroke-width:1;"/><text fill="#000000" font-family="sans-serif" font-size="14" lengthAdjust="spacing" textLength="134.2031" x="543.87" y="400.8564">suivreCommande()</text></g><!--class Menu--><g class="entity" data-entity="Menu" data-source-line="40" data-uid="ent0007" id="entity_Menu"><rect fill="#F1F1F1" height="194.6719" rx="2.5" ry="2.5" style="stroke:#181818;stroke-width:0.5;" width="173.4922" x="497.94" y="485.16"/><ellipse cx="561.2169" cy="501.16" fill="#ADD1B2" rx="11" ry="11" style="stroke:#181818;stroke-width:1;"/><path d="M564.1856,506.8006 Q563.6075,507.0975 562.9669,507.2381 Q562.3262,507.3944 561.6231,507.3944 Q559.1231,507.3944 557.795,505.7537 Q556.4825,504.0975 556.4825,500.9725 Q556.4825,497.8475 557.795,496.1912 Q559.1231,494.535 561.6231,494.535 Q562.3262,494.535 562.9669,494.6912 Q563.6231,494.8475 564.1856,495.1444 L564.1856,497.8631 Q563.5606,497.285 562.9669,497.0194 Q562.3731,496.7381 561.7481,496.7381 Q560.4044,496.7381 559.7169,497.8162 Q559.0294,498.8787 559.0294,500.9725 Q559.0294,503.0662 559.7169,504.1444 Q560.4044,505.2069 561.7481,505.2069 Q562.3731,505.2069 562.9669,504.9412 Q563.5606,504.66 564.1856,504.0819 L564.1856,506.8006 Z " fill="#000000"/><text fill="#000000" font-family="sans-serif" font-size="14" lengthAdjust="spacing" textLength="38.4385" x="581.7169" y="506.0067">Menu</text><line style="stroke:#181818;stroke-width:0.5;" x1="498.94" x2="670.4322" y1="517.16" y2="517.16"/><rect fill="none" height="6" style="stroke:#C82930;stroke-width:1;" width="6" x="505.94" y="527.8084"/><text fill="#000000" font-family="sans-serif" font-size="14" lengthAdjust="spacing" textLength="40.1953" x="517.94" y="534.1551">id: int</text><rect fill="none" height="6" style="stroke:#C82930;stroke-width:1;" width="6" x="505.94" y="544.1053"/><text fill="#000000" font-family="sans-serif" font-size="14" lengthAdjust="spacing" textLength="80.4316" x="517.94" y="550.452">nom: string</text><rect fill="none" height="6" style="stroke:#C82930;stroke-width:1;" width="6" x="505.94" y="560.4022"/><text fill="#000000" font-family="sans-serif" font-size="14" lengthAdjust="spacing" textLength="67.4365" x="517.94" y="566.7489">prix: float</text><rect fill="none" height="6" style="stroke:#C82930;stroke-width:1;" width="6" x="505.94" y="576.6991"/><text fill="#000000" font-family="sans-serif" font-size="14" lengthAdjust="spacing" textLength="127.1963" x="517.94" y="583.0457">description: string</text><rect fill="none" height="6" style="stroke:#C82930;stroke-width:1;" width="6" x="505.94" y="592.9959"/><text fill="#000000" font-family="sans-serif" font-size="14" lengthAdjust="spacing" textLength="115.4453" x="517.94" y="599.3426">categorie: string</text><rect fill="none" height="6" style="stroke:#C82930;stroke-width:1;" width="6" x="505.94" y="609.2928"/><text fill="#000000" font-family="sans-serif" font-size="14" lengthAdjust="spacing" textLength="124.0176" x="517.94" y="615.6395">disponibilite: bool</text><line style="stroke:#181818;stroke-width:0.5;" x1="498.94" x2="670.4322" y1="622.9413" y2="622.9413"/><ellipse cx="508.94" cy="636.5897" fill="#84BE84" rx="3" ry="3" style="stroke:#038048;stroke-width:1;"/><text fill="#000000" font-family="sans-serif" font-size="14" lengthAdjust="spacing" textLength="102.6279" x="517.94" y="639.9364">afficherMenu()</text><ellipse cx="508.94" cy="652.8866" fill="#84BE84" rx="3" ry="3" style="stroke:#038048;stroke-width:1;"/><text fill="#000000" font-family="sans-serif" font-size="14" lengthAdjust="spacing" textLength="107.5293" x="517.94" y="656.2332">modifierMenu()</text><ellipse cx="508.94" cy="669.1834" fill="#84BE84" rx="3" ry="3" style="stroke:#038048;stroke-width:1;"/><text fill="#000000" font-family="sans-serif" font-size="14" lengthAdjust="spacing" textLength="147.4922" x="517.94" y="672.5301">verifierDisponibilite()</text></g><!--class Paiement--><g class="entity" data-entity="Paiement" data-source-line="52" data-uid="ent0008" id="entity_Paiement"><rect fill="#F1F1F1" height="162.0781" rx="2.5" ry="2.5" style="stroke:#181818;stroke-width:0.5;" width="146.6338" x="706.37" y="501.46"/><ellipse cx="743.1932" cy="517.46" fill="#ADD1B2" rx="11" ry="11" style="stroke:#181818;stroke-width:1;"/><path d="M746.162,523.1006 Q745.5839,523.3975 744.9432,523.5381 Q744.3026,523.6944 743.5995,523.6944 Q741.0995,523.6944 739.7714,522.0538 Q738.4589,520.3975 738.4589,517.2725 Q738.4589,514.1475 739.7714,512.4913 Q741.0995,510.835 743.5995,510.835 Q744.3026,510.835 744.9432,510.9913 Q745.5995,511.1475 746.162,511.4444 L746.162,514.1631 Q745.537,513.585 744.9432,513.3194 Q744.3495,513.0381 743.7245,513.0381 Q742.3807,513.0381 741.6932,514.1163 Q741.0057,515.1788 741.0057,517.2725 Q741.0057,519.3663 741.6932,520.4444 Q742.3807,521.5069 743.7245,521.5069 Q744.3495,521.5069 744.9432,521.2413 Q745.537,520.96 746.162,520.3819 L746.162,523.1006 Z " fill="#000000"/><text fill="#000000" font-family="sans-serif" font-size="14" lengthAdjust="spacing" textLength="66.1377" x="762.0429" y="522.3067">Paiement</text><line style="stroke:#181818;stroke-width:0.5;" x1="707.37" x2="852.0038" y1="533.46" y2="533.46"/><rect fill="none" height="6" style="stroke:#C82930;stroke-width:1;" width="6" x="714.37" y="544.1084"/><text fill="#000000" font-family="sans-serif" font-size="14" lengthAdjust="spacing" textLength="40.1953" x="726.37" y="550.4551">id: int</text><rect fill="none" height="6" style="stroke:#C82930;stroke-width:1;" width="6" x="714.37" y="560.4053"/><text fill="#000000" font-family="sans-serif" font-size="14" lengthAdjust="spacing" textLength="100.126" x="726.37" y="566.752">montant: float</text><rect fill="none" height="6" style="stroke:#C82930;stroke-width:1;" width="6" x="714.37" y="576.7022"/><text fill="#000000" font-family="sans-serif" font-size="14" lengthAdjust="spacing" textLength="89.0586" x="726.37" y="583.0489">mode: string</text><rect fill="none" height="6" style="stroke:#C82930;stroke-width:1;" width="6" x="714.37" y="592.9991"/><text fill="#000000" font-family="sans-serif" font-size="14" lengthAdjust="spacing" textLength="90.5693" x="726.37" y="599.3457">statut: string</text><line style="stroke:#181818;stroke-width:0.5;" x1="707.37" x2="852.0038" y1="606.6475" y2="606.6475"/><ellipse cx="717.37" cy="620.2959" fill="#84BE84" rx="3" ry="3" style="stroke:#038048;stroke-width:1;"/><text fill="#000000" font-family="sans-serif" font-size="14" lengthAdjust="spacing" textLength="120.6338" x="726.37" y="623.6426">traiterPaiement()</text><ellipse cx="717.37" cy="636.5928" fill="#84BE84" rx="3" ry="3" style="stroke:#038048;stroke-width:1;"/><text fill="#000000" font-family="sans-serif" font-size="14" lengthAdjust="spacing" textLength="119.0957" x="726.37" y="639.9395">genererFacture()</text><ellipse cx="717.37" cy="652.8897" fill="#84BE84" rx="3" ry="3" style="stroke:#038048;stroke-width:1;"/><text fill="#000000" font-family="sans-serif" font-size="14" lengthAdjust="spacing" textLength="92.6748" x="726.37" y="656.2364">rembourser()</text></g><!--class Stock--><g class="entity" data-entity="Stock" data-source-line="62" data-uid="ent0009" id="entity_Stock"><rect fill="#F1F1F1" height="162.0781" rx="2.5" ry="2.5" style="stroke:#181818;stroke-width:0.5;" width="207.7607" x="331.8" y="756.83"/><ellipse cx="412.0573" cy="772.83" fill="#ADD1B2" rx="11" ry="11" style="stroke:#181818;stroke-width:1;"/><path d="M415.0261,778.4706 Q414.4479,778.7675 413.8073,778.9081 Q413.1667,779.0644 412.4636,779.0644 Q409.9636,779.0644 408.6354,777.4237 Q407.3229,775.7675 407.3229,772.6425 Q407.3229,769.5175 408.6354,767.8612 Q409.9636,766.205 412.4636,766.205 Q413.1667,766.205 413.8073,766.3612 Q414.4636,766.5175 415.0261,766.8144 L415.0261,769.5331 Q414.4011,768.955 413.8073,768.6894 Q413.2136,768.4081 412.5886,768.4081 Q411.2448,768.4081 410.5573,769.4862 Q409.8698,770.5487 409.8698,772.6425 Q409.8698,774.7362 410.5573,775.8144 Q411.2448,776.8769 412.5886,776.8769 Q413.2136,776.8769 413.8073,776.6112 Q414.4011,776.33 415.0261,775.7519 L415.0261,778.4706 Z " fill="#000000"/><text fill="#000000" font-family="sans-serif" font-size="14" lengthAdjust="spacing" textLength="38.7461" x="432.5573" y="777.6767">Stock</text><line style="stroke:#181818;stroke-width:0.5;" x1="332.8" x2="538.5607" y1="788.83" y2="788.83"/><rect fill="none" height="6" style="stroke:#C82930;stroke-width:1;" width="6" x="339.8" y="799.4784"/><text fill="#000000" font-family="sans-serif" font-size="14" lengthAdjust="spacing" textLength="40.1953" x="351.8" y="805.8251">id: int</text><rect fill="none" height="6" style="stroke:#C82930;stroke-width:1;" width="6" x="339.8" y="815.7753"/><text fill="#000000" font-family="sans-serif" font-size="14" lengthAdjust="spacing" textLength="121.126" x="351.8" y="822.122">ingredient: string</text><rect fill="none" height="6" style="stroke:#C82930;stroke-width:1;" width="6" x="339.8" y="832.0722"/><text fill="#000000" font-family="sans-serif" font-size="14" lengthAdjust="spacing" textLength="86.1123" x="351.8" y="838.4189">quantite: int</text><rect fill="none" height="6" style="stroke:#C82930;stroke-width:1;" width="6" x="339.8" y="848.3691"/><text fill="#000000" font-family="sans-serif" font-size="14" lengthAdjust="spacing" textLength="181.7607" x="351.8" y="854.7157">date_expiration: datetime</text><line style="stroke:#181818;stroke-width:0.5;" x1="332.8" x2="538.5607" y1="862.0175" y2="862.0175"/><ellipse cx="342.8" cy="875.6659" fill="#84BE84" rx="3" ry="3" style="stroke:#038048;stroke-width:1;"/><text fill="#000000" font-family="sans-serif" font-size="14" lengthAdjust="spacing" textLength="134.1689" x="351.8" y="879.0126">mettreAJourStock()</text><ellipse cx="342.8" cy="891.9628" fill="#84BE84" rx="3" ry="3" style="stroke:#038048;stroke-width:1;"/><text fill="#000000" font-family="sans-serif" font-size="14" lengthAdjust="spacing" textLength="147.4922" x="351.8" y="895.3095">verifierDisponibilite()</text><ellipse cx="342.8" cy="908.2597" fill="#84BE84" rx="3" ry="3" style="stroke:#038048;stroke-width:1;"/><text fill="#000000" font-family="sans-serif" font-size="14" lengthAdjust="spacing" textLength="113.8389" x="351.8" y="911.6064">alerterRupture()</text></g><!--class Reservation--><g class="entity" data-entity="Reservation" data-source-line="72" data-uid="ent0010" id="entity_Reservation"><rect fill="#F1F1F1" height="162.0781" rx="2.5" ry="2.5" style="stroke:#181818;stroke-width:0.5;" width="174.0664" x="724.65" y="246.08"/><ellipse cx="765.9214" cy="262.08" fill="#ADD1B2" rx="11" ry="11" style="stroke:#181818;stroke-width:1;"/><path d="M768.8901,267.7206 Q768.312,268.0175 767.6714,268.1581 Q767.0308,268.3144 766.3276,268.3144 Q763.8276,268.3144 762.4995,266.6737 Q761.187,265.0175 761.187,261.8925 Q761.187,258.7675 762.4995,257.1112 Q763.8276,255.455 766.3276,255.455 Q767.0308,255.455 767.6714,255.6112 Q768.3276,255.7675 768.8901,256.0644 L768.8901,258.7831 Q768.2651,258.205 767.6714,257.9394 Q767.0776,257.6581 766.4526,257.6581 Q765.1089,257.6581 764.4214,258.7362 Q763.7339,259.7987 763.7339,261.8925 Q763.7339,263.9862 764.4214,265.0644 Q765.1089,266.1269 766.4526,266.1269 Q767.0776,266.1269 767.6714,265.8612 Q768.2651,265.58 768.8901,265.0019 L768.8901,267.7206 Z " fill="#000000"/><text fill="#000000" font-family="sans-serif" font-size="14" lengthAdjust="spacing" textLength="83.6855" x="785.7595" y="266.9267">Reservation</text><line style="stroke:#181818;stroke-width:0.5;" x1="725.65" x2="897.7164" y1="278.08" y2="278.08"/><rect fill="none" height="6" style="stroke:#C82930;stroke-width:1;" width="6" x="732.65" y="288.7284"/><text fill="#000000" font-family="sans-serif" font-size="14" lengthAdjust="spacing" textLength="40.1953" x="744.65" y="295.0751">id: int</text><rect fill="none" height="6" style="stroke:#C82930;stroke-width:1;" width="6" x="732.65" y="305.0253"/><text fill="#000000" font-family="sans-serif" font-size="14" lengthAdjust="spacing" textLength="101.2607" x="744.65" y="311.372">table_num: int</text><rect fill="none" height="6" style="stroke:#C82930;stroke-width:1;" width="6" x="732.65" y="321.3222"/><text fill="#000000" font-family="sans-serif" font-size="14" lengthAdjust="spacing" textLength="77.5264" x="744.65" y="327.6689">etat: string</text><rect fill="none" height="6" style="stroke:#C82930;stroke-width:1;" width="6" x="732.65" y="337.6191"/><text fill="#000000" font-family="sans-serif" font-size="14" lengthAdjust="spacing" textLength="86.8506" x="744.65" y="343.9657">capacite: int</text><line style="stroke:#181818;stroke-width:0.5;" x1="725.65" x2="897.7164" y1="351.2675" y2="351.2675"/><ellipse cx="735.65" cy="364.9159" fill="#84BE84" rx="3" ry="3" style="stroke:#038048;stroke-width:1;"/><text fill="#000000" font-family="sans-serif" font-size="14" lengthAdjust="spacing" textLength="108.1309" x="744.65" y="368.2626">reserverTable()</text><ellipse cx="735.65" cy="381.2128" fill="#84BE84" rx="3" ry="3" style="stroke:#038048;stroke-width:1;"/><text fill="#000000" font-family="sans-serif" font-size="14" lengthAdjust="spacing" textLength="148.0664" x="744.65" y="384.5595">annulerReservation()</text><ellipse cx="735.65" cy="397.5097" fill="#84BE84" rx="3" ry="3" style="stroke:#038048;stroke-width:1;"/><text fill="#000000" font-family="sans-serif" font-size="14" lengthAdjust="spacing" textLength="147.4922" x="744.65" y="400.8564">verifierDisponibilite()</text></g><!--reverse link Utilisateur to Etudiant--><g class="link" data-entity-1="Utilisateur" data-entity-2="Etudiant" data-source-line="82" data-uid="lnk11" id="link_Utilisateur_Etudiant"><path codeLine="82" d="M296.3315,150.4423 C269.2515,167.8223 255.03,178.36 229.68,199.08 C200.22,223.17 170.21,253.44 146.98,278.39 " fill="none" id="Utilisateur-backto-Etudiant" style="stroke:#181818;stroke-width:1;"/><polygon fill="none" points="311.48,140.72,293.0907,145.3928,299.5723,155.4918,311.48,140.72" style="stroke:#181818;stroke-width:1;"/></g><!--reverse link Utilisateur to Personnel--><g class="link" data-entity-1="Utilisateur" data-entity-2="Personnel" data-source-line="83" data-uid="lnk12" id="link_Utilisateur_Personnel"><path codeLine="83" d="M322.8652,184.0452 C306.7852,207.5452 301.54,219.3 291.68,246.08 C255.79,343.64 252.37,467.16 253.64,533.74 " fill="none" id="Utilisateur-backto-Personnel" style="stroke:#181818;stroke-width:1;"/><polygon fill="none" points="333.03,169.19,317.9135,180.657,327.817,187.4335,333.03,169.19" style="stroke:#181818;stroke-width:1;"/></g><!--reverse link Utilisateur to Administrateur--><g class="link" data-entity-1="Utilisateur" data-entity-2="Administrateur" data-source-line="84" data-uid="lnk13" id="link_Utilisateur_Administrateur"><path codeLine="84" d="M398.68,187.31 C398.68,223.58 398.68,247.2 398.68,278.45 " fill="none" id="Utilisateur-backto-Administrateur" style="stroke:#181818;stroke-width:1;"/><polygon fill="none" points="398.68,169.31,392.68,187.31,404.68,187.31,398.68,169.31" style="stroke:#181818;stroke-width:1;"/></g><!--link Utilisateur to Commande--><g class="link" data-entity-1="Utilisateur" data-entity-2="Commande" data-source-line="85" data-uid="lnk14" id="link_Utilisateur_Commande"><path codeLine="85" d="M469.1,169.31 C490.79,194.02 514.66,221.23 536.34,245.94 " fill="none" id="Utilisateur-Commande" style="stroke:#181818;stroke-width:1;"/><text fill="#000000" font-family="sans-serif" font-size="13" lengthAdjust="spacing" textLength="28.4883" x="510.68" y="212.1469">cr&#233;e</text><text fill="#000000" font-family="sans-serif" font-size="13" lengthAdjust="spacing" textLength="8.271" x="466.8197" y="189.0114">1</text><text fill="#000000" font-family="sans-serif" font-size="13" lengthAdjust="spacing" textLength="6.5" x="523.8299" y="235.1148">*</text></g><!--link Commande to Menu--><g class="link" data-entity-1="Commande" data-entity-2="Menu" data-source-line="86" data-uid="lnk15" id="link_Commande_Menu"><path codeLine="86" d="M599.69,408.64 C597.59,432.84 595.26,459.64 593.08,484.77 " fill="none" id="Commande-Menu" style="stroke:#181818;stroke-width:1;"/><text fill="#000000" font-family="sans-serif" font-size="13" lengthAdjust="spacing" textLength="53.3838" x="598.68" y="451.2269">contient</text><text fill="#000000" font-family="sans-serif" font-size="13" lengthAdjust="spacing" textLength="8.271" x="590.7567" y="428.3628">1</text><text fill="#000000" font-family="sans-serif" font-size="13" lengthAdjust="spacing" textLength="6.5" x="587.4945" y="474.1142">*</text></g><!--link Commande to Paiement--><g class="link" data-entity-1="Commande" data-entity-2="Paiement" data-source-line="87" data-uid="lnk16" id="link_Commande_Paiement"><path codeLine="87" d="M661.66,408.64 C681.84,438.2 704.68,471.65 724.85,501.19 " fill="none" id="Commande-Paiement" style="stroke:#181818;stroke-width:1;"/><text fill="#000000" font-family="sans-serif" font-size="13" lengthAdjust="spacing" textLength="60.3218" x="693.68" y="451.2269">associ&#233; &#224;</text><text fill="#000000" font-family="sans-serif" font-size="13" lengthAdjust="spacing" textLength="8.271" x="658.0523" y="428.3628">1</text><text fill="#000000" font-family="sans-serif" font-size="13" lengthAdjust="spacing" textLength="8.271" x="711.6219" y="490.3533">1</text></g><!--link Menu to Stock--><g class="link" data-entity-1="Menu" data-entity-2="Stock" data-source-line="88" data-uid="lnk17" id="link_Menu_Stock"><path codeLine="88" d="M527.93,680.01 C513.04,705.32 497.15,732.34 482.83,756.7 " fill="none" id="Menu-Stock" style="stroke:#181818;stroke-width:1;"/><text fill="#000000" font-family="sans-serif" font-size="13" lengthAdjust="spacing" textLength="38.9429" x="511.68" y="722.8969">utilise</text><text fill="#000000" font-family="sans-serif" font-size="13" lengthAdjust="spacing" textLength="8.271" x="515.4782" y="699.7937">1</text><text fill="#000000" font-family="sans-serif" font-size="13" lengthAdjust="spacing" textLength="6.5" x="480.7843" y="745.8757">*</text></g><!--link Utilisateur to Reservation--><g class="link" data-entity-1="Utilisateur" data-entity-2="Reservation" data-source-line="89" data-uid="lnk18" id="link_Utilisateur_Reservation"><path codeLine="89" d="M485.93,128.37 C548.88,157.96 635.04,201.03 706.68,246.08 C712.5,249.74 718.4,253.64 724.28,257.68 " fill="none" id="Utilisateur-Reservation" style="stroke:#181818;stroke-width:1;"/><text fill="#000000" font-family="sans-serif" font-size="13" lengthAdjust="spacing" textLength="53.6313" x="651.68" y="212.1469">effectue</text><text fill="#000000" font-family="sans-serif" font-size="13" lengthAdjust="spacing" textLength="8.271" x="493.4979" y="128.1612">1</text><text fill="#000000" font-family="sans-serif" font-size="13" lengthAdjust="spacing" textLength="6.5" x="710.2507" y="247.9004">*</text></g><!--link Administrateur to Personnel--><g class="link" data-entity-1="Administrateur" data-entity-2="Personnel" data-source-line="90" data-uid="lnk19" id="link_Administrateur_Personnel"><path codeLine="90" d="M371.79,375.78 C346.3,420.93 317.0779,472.7147 291.5479,517.9447 " fill="none" id="Administrateur-to-Personnel" style="stroke:#181818;stroke-width:1;"/><polygon fill="none" points="282.7,533.62,296.773,520.894,286.3228,514.9954,282.7,533.62" style="stroke:#181818;stroke-width:1;"/></g><!--link Administrateur to Stock--><g class="link" data-entity-1="Administrateur" data-entity-2="Stock" data-source-line="91" data-uid="lnk20" id="link_Administrateur_Stock"><path codeLine="91" d="M402.16,375.98 C408.51,463.3 422.04,649.3 429.83,756.4 " fill="none" id="Administrateur-Stock" style="stroke:#181818;stroke-width:1;"/><text fill="#000000" font-family="sans-serif" font-size="13" lengthAdjust="spacing" textLength="54.8818" x="425.68" y="587.0669">surveille</text><text fill="#000000" font-family="sans-serif" font-size="13" lengthAdjust="spacing" textLength="8.271" x="420.9951" y="745.8268">1</text></g><!--SRC=[ZLJBRjim4BphAmXV-Z1yw5Ke2WHDYw90WI1fpmOjhPH5-L2Mf16ZwR_qwk_mZtN5I3GbmK5yaC4bEJixEzmtuXfbIr9h43M8Iaddm0cfJqU5bax78eR4BuyAdVGGIFmf1Fys0kjIeF73obXT2kS9JJj4G4jKivYpgePIDChAvujhKLcjfQc1thuR8fqyPAlA6XUK1_g6pbl2Xm2yzxSOc7tneKPfVA9bWWQoMnZY4m9hGL3TIsg1FblTUKXPjAsnGQ0RiWsgFC4DaBF6W4ePo2gOmJ9WX8oLk8Iw1ugeTzvMltFGgrgZuNeebtI0oRHskGeDje6txmxEWpupbqQgW-jpIC-8lJukJpMokj0tnzU2dxMfvknb_7hKC0HP8jWIC6USgxgN2lCEIcE2ojOku9vWP9Ap-m4clDfH7U5ZRXuc2guYx3nQCpjRCVcMxGBpqj1rrk2EDUvht5chHj9DWzKzK4zfuOj9S6phTOuryOn4Rb5cocbbsXeVhPcNqiixVotBtgn5r9-DEgH8f5emlNk-oigpJLAOGEyiEobs8n6CXhp0ZbCHr0Xcxeg7mAIZQkV3lKUsyDWXEpasOM8QrW-y9xZwpXJ6H_2oXaCls3rSv6teXc8IyrlWKlOnsGN-NkuKR7aCv45WAHSEwMGrAQTNgqS7-jbZpEsSfNwD5VAP-V5fiqcZQhcJPinoQpef9lkh3ol19rRlL-T7NegAfpOKAP0TYc-jx4U9xxkxFCD_oRcbOBLjXQUZEFqhujKCwja_fGYH3boYbJUh5D0qmEQ4OZRzDfkdJva4Yzs8E6PqWVk3Ii5_]--></g></svg>