<svg xmlns="http://www.w3.org/2000/svg" xmlns:xlink="http://www.w3.org/1999/xlink" contentStyleType="text/css" data-diagram-type="SEQUENCE" height="852px" preserveAspectRatio="none" style="width:843px;height:852px;background:#FFFFFF;" version="1.1" viewBox="0 0 843 852" width="843px" zoomAndPan="magnify"><defs/><g><g><title>Etudiant</title><rect fill="#000000" fill-opacity="0.00000" height="690.0547" width="8" x="33.4629" y="81.2969"/><line style="stroke:#181818;stroke-width:0.5;stroke-dasharray:5.0,5.0;" x1="37" x2="37" y1="81.2969" y2="771.3516"/></g><g><title>Serveur</title><rect fill="#000000" fill-opacity="0.00000" height="690.0547" width="8" x="184.5874" y="81.2969"/><line style="stroke:#181818;stroke-width:0.5;stroke-dasharray:5.0,5.0;" x1="188.1958" x2="188.1958" y1="81.2969" y2="771.3516"/></g><g><title>SystemeCommande</title><rect fill="#000000" fill-opacity="0.00000" height="690.0547" width="8" x="395.748" y="81.2969"/><line style="stroke:#181818;stroke-width:0.5;stroke-dasharray:5.0,5.0;" x1="399.0542" x2="399.0542" y1="81.2969" y2="771.3516"/></g><g><title>Authentification</title><rect fill="#000000" fill-opacity="0.00000" height="690.0547" width="8" x="598.1616" y="81.2969"/><line style="stroke:#181818;stroke-width:0.5;stroke-dasharray:5.0,5.0;" x1="601.3667" x2="601.3667" y1="81.2969" y2="771.3516"/></g><g><title>Reservation</title><rect fill="#000000" fill-opacity="0.00000" height="690.0547" width="8" x="711.7993" y="81.2969"/><line style="stroke:#181818;stroke-width:0.5;stroke-dasharray:5.0,5.0;" x1="714.9565" x2="714.9565" y1="81.2969" y2="771.3516"/></g><g><title>Paiement</title><rect fill="#000000" fill-opacity="0.00000" height="690.0547" width="8" x="802.7109" y="81.2969"/><line style="stroke:#181818;stroke-width:0.5;stroke-dasharray:5.0,5.0;" x1="806.6421" x2="806.6421" y1="81.2969" y2="771.3516"/></g><g class="participant participant-head" data-participant="Etudiant"><text fill="#000000" font-family="sans-serif" font-size="14" lengthAdjust="spacing" textLength="58.9258" x="5" y="77.9951">Etudiant</text><ellipse cx="37.4629" cy="13.5" fill="#E2E2F0" rx="8" ry="8" style="stroke:#181818;stroke-width:0.5;"/><path d="M37.4629,21.5 L37.4629,48.5 M24.4629,29.5 L50.4629,29.5 M37.4629,48.5 L24.4629,63.5 M37.4629,48.5 L50.4629,63.5 " fill="none" style="stroke:#181818;stroke-width:0.5;"/></g><g class="participant participant-tail" data-participant="Etudiant"><text fill="#000000" font-family="sans-serif" font-size="14" lengthAdjust="spacing" textLength="58.9258" x="5" y="783.3467">Etudiant</text><ellipse cx="37.4629" cy="795.1484" fill="#E2E2F0" rx="8" ry="8" style="stroke:#181818;stroke-width:0.5;"/><path d="M37.4629,803.1484 L37.4629,830.1484 M24.4629,811.1484 L50.4629,811.1484 M37.4629,830.1484 L24.4629,845.1484 M37.4629,830.1484 L50.4629,845.1484 " fill="none" style="stroke:#181818;stroke-width:0.5;"/></g><g class="participant participant-head" data-participant="Serveur"><text fill="#000000" font-family="sans-serif" font-size="14" lengthAdjust="spacing" textLength="54.7832" x="158.1958" y="77.9951">Serveur</text><ellipse cx="188.5874" cy="13.5" fill="#E2E2F0" rx="8" ry="8" style="stroke:#181818;stroke-width:0.5;"/><path d="M188.5874,21.5 L188.5874,48.5 M175.5874,29.5 L201.5874,29.5 M188.5874,48.5 L175.5874,63.5 M188.5874,48.5 L201.5874,63.5 " fill="none" style="stroke:#181818;stroke-width:0.5;"/></g><g class="participant participant-tail" data-participant="Serveur"><text fill="#000000" font-family="sans-serif" font-size="14" lengthAdjust="spacing" textLength="54.7832" x="158.1958" y="783.3467">Serveur</text><ellipse cx="188.5874" cy="795.1484" fill="#E2E2F0" rx="8" ry="8" style="stroke:#181818;stroke-width:0.5;"/><path d="M188.5874,803.1484 L188.5874,830.1484 M175.5874,811.1484 L201.5874,811.1484 M188.5874,830.1484 L175.5874,845.1484 M188.5874,830.1484 L201.5874,845.1484 " fill="none" style="stroke:#181818;stroke-width:0.5;"/></g><g class="participant participant-head" data-participant="SystemeCommande"><text fill="#000000" font-family="sans-serif" font-size="14" lengthAdjust="spacing" textLength="141.3877" x="326.0542" y="77.9951">SystemeCommande</text><ellipse cx="399.748" cy="13.5" fill="#E2E2F0" rx="8" ry="8" style="stroke:#181818;stroke-width:0.5;"/><path d="M399.748,21.5 L399.748,48.5 M386.748,29.5 L412.748,29.5 M399.748,48.5 L386.748,63.5 M399.748,48.5 L412.748,63.5 " fill="none" style="stroke:#181818;stroke-width:0.5;"/></g><g class="participant participant-tail" data-participant="SystemeCommande"><text fill="#000000" font-family="sans-serif" font-size="14" lengthAdjust="spacing" textLength="141.3877" x="326.0542" y="783.3467">SystemeCommande</text><ellipse cx="399.748" cy="795.1484" fill="#E2E2F0" rx="8" ry="8" style="stroke:#181818;stroke-width:0.5;"/><path d="M399.748,803.1484 L399.748,830.1484 M386.748,811.1484 L412.748,811.1484 M399.748,830.1484 L386.748,845.1484 M399.748,830.1484 L412.748,845.1484 " fill="none" style="stroke:#181818;stroke-width:0.5;"/></g><g class="participant participant-head" data-participant="Authentification"><text fill="#000000" font-family="sans-serif" font-size="14" lengthAdjust="spacing" textLength="111.5898" x="543.3667" y="77.9951">Authentification</text><ellipse cx="602.1616" cy="13.5" fill="#E2E2F0" rx="8" ry="8" style="stroke:#181818;stroke-width:0.5;"/><path d="M602.1616,21.5 L602.1616,48.5 M589.1616,29.5 L615.1616,29.5 M602.1616,48.5 L589.1616,63.5 M602.1616,48.5 L615.1616,63.5 " fill="none" style="stroke:#181818;stroke-width:0.5;"/></g><g class="participant participant-tail" data-participant="Authentification"><text fill="#000000" font-family="sans-serif" font-size="14" lengthAdjust="spacing" textLength="111.5898" x="543.3667" y="783.3467">Authentification</text><ellipse cx="602.1616" cy="795.1484" fill="#E2E2F0" rx="8" ry="8" style="stroke:#181818;stroke-width:0.5;"/><path d="M602.1616,803.1484 L602.1616,830.1484 M589.1616,811.1484 L615.1616,811.1484 M602.1616,830.1484 L589.1616,845.1484 M602.1616,830.1484 L615.1616,845.1484 " fill="none" style="stroke:#181818;stroke-width:0.5;"/></g><g class="participant participant-head" data-participant="Reservation"><text fill="#000000" font-family="sans-serif" font-size="14" lengthAdjust="spacing" textLength="83.6855" x="670.9565" y="77.9951">Reservation</text><ellipse cx="715.7993" cy="13.5" fill="#E2E2F0" rx="8" ry="8" style="stroke:#181818;stroke-width:0.5;"/><path d="M715.7993,21.5 L715.7993,48.5 M702.7993,29.5 L728.7993,29.5 M715.7993,48.5 L702.7993,63.5 M715.7993,48.5 L728.7993,63.5 " fill="none" style="stroke:#181818;stroke-width:0.5;"/></g><g class="participant participant-tail" data-participant="Reservation"><text fill="#000000" font-family="sans-serif" font-size="14" lengthAdjust="spacing" textLength="83.6855" x="670.9565" y="783.3467">Reservation</text><ellipse cx="715.7993" cy="795.1484" fill="#E2E2F0" rx="8" ry="8" style="stroke:#181818;stroke-width:0.5;"/><path d="M715.7993,803.1484 L715.7993,830.1484 M702.7993,811.1484 L728.7993,811.1484 M715.7993,830.1484 L702.7993,845.1484 M715.7993,830.1484 L728.7993,845.1484 " fill="none" style="stroke:#181818;stroke-width:0.5;"/></g><g class="participant participant-head" data-participant="Paiement"><text fill="#000000" font-family="sans-serif" font-size="14" lengthAdjust="spacing" textLength="66.1377" x="770.6421" y="77.9951">Paiement</text><ellipse cx="806.7109" cy="13.5" fill="#E2E2F0" rx="8" ry="8" style="stroke:#181818;stroke-width:0.5;"/><path d="M806.7109,21.5 L806.7109,48.5 M793.7109,29.5 L819.7109,29.5 M806.7109,48.5 L793.7109,63.5 M806.7109,48.5 L819.7109,63.5 " fill="none" style="stroke:#181818;stroke-width:0.5;"/></g><g class="participant participant-tail" data-participant="Paiement"><text fill="#000000" font-family="sans-serif" font-size="14" lengthAdjust="spacing" textLength="66.1377" x="770.6421" y="783.3467">Paiement</text><ellipse cx="806.7109" cy="795.1484" fill="#E2E2F0" rx="8" ry="8" style="stroke:#181818;stroke-width:0.5;"/><path d="M806.7109,803.1484 L806.7109,830.1484 M793.7109,811.1484 L819.7109,811.1484 M806.7109,830.1484 L793.7109,845.1484 M806.7109,830.1484 L819.7109,845.1484 " fill="none" style="stroke:#181818;stroke-width:0.5;"/></g><g class="message" data-participant-1="Etudiant" data-participant-2="Authentification"><polygon fill="#181818" points="590.1616,108.4297,600.1616,112.4297,590.1616,116.4297,594.1616,112.4297" style="stroke:#181818;stroke-width:1;"/><line style="stroke:#181818;stroke-width:1;" x1="37.4629" x2="596.1616" y1="112.4297" y2="112.4297"/><text fill="#000000" font-family="sans-serif" font-size="13" lengthAdjust="spacing" textLength="68.104" x="44.4629" y="107.3638">Inscription</text></g><g class="message" data-participant-1="Authentification" data-participant-2="Etudiant"><polygon fill="#181818" points="48.4629,137.5625,38.4629,141.5625,48.4629,145.5625,44.4629,141.5625" style="stroke:#181818;stroke-width:1;"/><line style="stroke:#181818;stroke-width:1;" x1="42.4629" x2="601.1616" y1="141.5625" y2="141.5625"/><text fill="#000000" font-family="sans-serif" font-size="13" lengthAdjust="spacing" textLength="235.8345" x="54.4629" y="136.4966">Confirmation de cr&#233;ation de compte</text></g><g class="message" data-participant-1="Etudiant" data-participant-2="Authentification"><polygon fill="#181818" points="590.1616,166.6953,600.1616,170.6953,590.1616,174.6953,594.1616,170.6953" style="stroke:#181818;stroke-width:1;"/><line style="stroke:#181818;stroke-width:1;" x1="37.4629" x2="596.1616" y1="170.6953" y2="170.6953"/><text fill="#000000" font-family="sans-serif" font-size="13" lengthAdjust="spacing" textLength="69.0054" x="44.4629" y="165.6294">Connexion</text></g><g class="message" data-participant-1="Authentification" data-participant-2="SystemeCommande"><polygon fill="#181818" points="410.748,195.8281,400.748,199.8281,410.748,203.8281,406.748,199.8281" style="stroke:#181818;stroke-width:1;"/><line style="stroke:#181818;stroke-width:1;" x1="404.748" x2="601.1616" y1="199.8281" y2="199.8281"/><text fill="#000000" font-family="sans-serif" font-size="13" lengthAdjust="spacing" textLength="178.4136" x="416.748" y="194.7622">V&#233;rification des identifiants</text></g><g class="message" data-participant-1="SystemeCommande" data-participant-2="Authentification"><polygon fill="#181818" points="590.1616,224.9609,600.1616,228.9609,590.1616,232.9609,594.1616,228.9609" style="stroke:#181818;stroke-width:1;"/><line style="stroke:#181818;stroke-width:1;" x1="399.748" x2="596.1616" y1="228.9609" y2="228.9609"/><text fill="#000000" font-family="sans-serif" font-size="13" lengthAdjust="spacing" textLength="166.8926" x="406.748" y="223.895">R&#233;sultat de la v&#233;rification</text></g><g class="message" data-participant-1="Authentification" data-participant-2="Etudiant"><polygon fill="#181818" points="48.4629,254.0938,38.4629,258.0938,48.4629,262.0938,44.4629,258.0938" style="stroke:#181818;stroke-width:1;"/><line style="stroke:#181818;stroke-width:1;" x1="42.4629" x2="601.1616" y1="258.0938" y2="258.0938"/><text fill="#000000" font-family="sans-serif" font-size="13" lengthAdjust="spacing" textLength="111.541" x="54.4629" y="253.0278">Acc&#232;s au compte</text></g><g class="message" data-participant-1="Etudiant" data-participant-2="SystemeCommande"><polygon fill="#181818" points="387.748,283.2266,397.748,287.2266,387.748,291.2266,391.748,287.2266" style="stroke:#181818;stroke-width:1;"/><line style="stroke:#181818;stroke-width:1;" x1="37.4629" x2="393.748" y1="287.2266" y2="287.2266"/><text fill="#000000" font-family="sans-serif" font-size="13" lengthAdjust="spacing" textLength="187.624" x="44.4629" y="282.1606">Consulter les menus et tarifs</text></g><g class="message" data-participant-1="Etudiant" data-participant-2="Reservation"><polygon fill="#181818" points="703.7993,312.3594,713.7993,316.3594,703.7993,320.3594,707.7993,316.3594" style="stroke:#181818;stroke-width:1;"/><line style="stroke:#181818;stroke-width:1;" x1="37.4629" x2="709.7993" y1="316.3594" y2="316.3594"/><text fill="#000000" font-family="sans-serif" font-size="13" lengthAdjust="spacing" textLength="134.8813" x="44.4629" y="311.2935">R&#233;server une table ?</text></g><g class="message" data-participant-1="Reservation" data-participant-2="SystemeCommande"><polygon fill="#181818" points="410.748,341.4922,400.748,345.4922,410.748,349.4922,406.748,345.4922" style="stroke:#181818;stroke-width:1;"/><line style="stroke:#181818;stroke-width:1;" x1="404.748" x2="714.7993" y1="345.4922" y2="345.4922"/><text fill="#000000" font-family="sans-serif" font-size="13" lengthAdjust="spacing" textLength="157.0601" x="416.748" y="340.4263">V&#233;rification disponibilit&#233;</text></g><g class="message" data-participant-1="SystemeCommande" data-participant-2="Reservation"><polygon fill="#181818" points="703.7993,370.625,713.7993,374.625,703.7993,378.625,707.7993,374.625" style="stroke:#181818;stroke-width:1;"/><line style="stroke:#181818;stroke-width:1;" x1="399.748" x2="709.7993" y1="374.625" y2="374.625"/><text fill="#000000" font-family="sans-serif" font-size="13" lengthAdjust="spacing" textLength="182.8696" x="406.748" y="369.5591">Confirmation de r&#233;servation</text></g><g class="message" data-participant-1="Reservation" data-participant-2="Etudiant"><polygon fill="#181818" points="48.4629,399.7578,38.4629,403.7578,48.4629,407.7578,44.4629,403.7578" style="stroke:#181818;stroke-width:1;"/><line style="stroke:#181818;stroke-width:1;" x1="42.4629" x2="714.7993" y1="403.7578" y2="403.7578"/><text fill="#000000" font-family="sans-serif" font-size="13" lengthAdjust="spacing" textLength="97.0493" x="54.4629" y="398.6919">Table r&#233;serv&#233;e</text></g><g class="message" data-participant-1="Etudiant" data-participant-2="SystemeCommande"><polygon fill="#181818" points="387.748,428.8906,397.748,432.8906,387.748,436.8906,391.748,432.8906" style="stroke:#181818;stroke-width:1;"/><line style="stroke:#181818;stroke-width:1;" x1="37.4629" x2="393.748" y1="432.8906" y2="432.8906"/><text fill="#000000" font-family="sans-serif" font-size="13" lengthAdjust="spacing" textLength="212.3735" x="44.4629" y="427.8247">Passer une commande anticip&#233;e</text></g><g class="message" data-participant-1="SystemeCommande" data-participant-2="Etudiant"><polygon fill="#181818" points="48.4629,458.0234,38.4629,462.0234,48.4629,466.0234,44.4629,462.0234" style="stroke:#181818;stroke-width:1;"/><line style="stroke:#181818;stroke-width:1;" x1="42.4629" x2="398.748" y1="462.0234" y2="462.0234"/><text fill="#000000" font-family="sans-serif" font-size="13" lengthAdjust="spacing" textLength="181.7334" x="54.4629" y="456.9575">Confirmation de commande</text></g><g class="message" data-participant-1="Etudiant" data-participant-2="Serveur"><polygon fill="#181818" points="176.5874,487.1563,186.5874,491.1563,176.5874,495.1563,180.5874,491.1563" style="stroke:#181818;stroke-width:1;"/><line style="stroke:#181818;stroke-width:1;" x1="37.4629" x2="182.5874" y1="491.1563" y2="491.1563"/><text fill="#000000" font-family="sans-serif" font-size="13" lengthAdjust="spacing" textLength="127.1245" x="44.4629" y="486.0903">Arriv&#233;e &#224; la cantine</text></g><g class="message" data-participant-1="Serveur" data-participant-2="SystemeCommande"><polygon fill="#181818" points="387.748,516.2891,397.748,520.2891,387.748,524.2891,391.748,520.2891" style="stroke:#181818;stroke-width:1;"/><line style="stroke:#181818;stroke-width:1;" x1="188.5874" x2="393.748" y1="520.2891" y2="520.2891"/><text fill="#000000" font-family="sans-serif" font-size="13" lengthAdjust="spacing" textLength="187.1606" x="195.5874" y="515.2231">V&#233;rification de la commande</text></g><g class="message" data-participant-1="SystemeCommande" data-participant-2="Serveur"><polygon fill="#181818" points="199.5874,545.4219,189.5874,549.4219,199.5874,553.4219,195.5874,549.4219" style="stroke:#181818;stroke-width:1;"/><line style="stroke:#181818;stroke-width:1;" x1="193.5874" x2="398.748" y1="549.4219" y2="549.4219"/><text fill="#000000" font-family="sans-serif" font-size="13" lengthAdjust="spacing" textLength="158.1772" x="205.5874" y="544.356">D&#233;tails de la commande</text></g><g class="message" data-participant-1="Serveur" data-participant-2="Etudiant"><polygon fill="#181818" points="48.4629,574.5547,38.4629,578.5547,48.4629,582.5547,44.4629,578.5547" style="stroke:#181818;stroke-width:1;"/><line style="stroke:#181818;stroke-width:1;" x1="42.4629" x2="187.5874" y1="578.5547" y2="578.5547"/><text fill="#000000" font-family="sans-serif" font-size="13" lengthAdjust="spacing" textLength="109.167" x="54.4629" y="573.4888">Remise du repas</text></g><g class="message" data-participant-1="Etudiant" data-participant-2="Paiement"><polygon fill="#181818" points="794.7109,603.6875,804.7109,607.6875,794.7109,611.6875,798.7109,607.6875" style="stroke:#181818;stroke-width:1;"/><line style="stroke:#181818;stroke-width:1;" x1="37.4629" x2="800.7109" y1="607.6875" y2="607.6875"/><text fill="#000000" font-family="sans-serif" font-size="13" lengthAdjust="spacing" textLength="486.5605" x="44.4629" y="602.6216">Choisir mode de paiement (Esp&#232;ces/Carte/Mobile Money/Compte pr&#233;pay&#233;)</text></g><g class="message" data-participant-1="Paiement" data-participant-2="SystemeCommande"><polygon fill="#181818" points="410.748,632.8203,400.748,636.8203,410.748,640.8203,406.748,636.8203" style="stroke:#181818;stroke-width:1;"/><line style="stroke:#181818;stroke-width:1;" x1="404.748" x2="805.7109" y1="636.8203" y2="636.8203"/><text fill="#000000" font-family="sans-serif" font-size="13" lengthAdjust="spacing" textLength="151.7852" x="416.748" y="631.7544">Validation du paiement</text></g><g class="message" data-participant-1="SystemeCommande" data-participant-2="Paiement"><polygon fill="#181818" points="794.7109,661.9531,804.7109,665.9531,794.7109,669.9531,798.7109,665.9531" style="stroke:#181818;stroke-width:1;"/><line style="stroke:#181818;stroke-width:1;" x1="399.748" x2="800.7109" y1="665.9531" y2="665.9531"/><text fill="#000000" font-family="sans-serif" font-size="13" lengthAdjust="spacing" textLength="182.2856" x="406.748" y="660.8872">Confirmation de transaction</text></g><g class="message" data-participant-1="Paiement" data-participant-2="Etudiant"><polygon fill="#181818" points="48.4629,691.0859,38.4629,695.0859,48.4629,699.0859,44.4629,695.0859" style="stroke:#181818;stroke-width:1;"/><line style="stroke:#181818;stroke-width:1;" x1="42.4629" x2="805.7109" y1="695.0859" y2="695.0859"/><text fill="#000000" font-family="sans-serif" font-size="13" lengthAdjust="spacing" textLength="104.6792" x="54.4629" y="690.02">Paiement valid&#233;</text></g><g class="message" data-participant-1="Etudiant" data-participant-2="SystemeCommande"><polygon fill="#181818" points="387.748,720.2188,397.748,724.2188,387.748,728.2188,391.748,724.2188" style="stroke:#181818;stroke-width:1;"/><line style="stroke:#181818;stroke-width:1;" x1="37.4629" x2="393.748" y1="724.2188" y2="724.2188"/><text fill="#000000" font-family="sans-serif" font-size="13" lengthAdjust="spacing" textLength="92.3267" x="44.4629" y="719.1528">Noter le repas</text></g><g class="message" data-participant-1="SystemeCommande" data-participant-2="Serveur"><polygon fill="#181818" points="199.5874,749.3516,189.5874,753.3516,199.5874,757.3516,195.5874,753.3516" style="stroke:#181818;stroke-width:1;"/><line style="stroke:#181818;stroke-width:1;" x1="193.5874" x2="398.748" y1="753.3516" y2="753.3516"/><text fill="#000000" font-family="sans-serif" font-size="13" lengthAdjust="spacing" textLength="95.4814" x="205.5874" y="748.2856">Feedback re&#231;u</text></g><!--SRC=[ZLHDRzim3BtxL_2u7ORSUzXGP1smGuSY7NPNP1ObPak2A0NDlzbjzU_G7nlbZqHslAQ0BwBu-DuZAIiTh8Ux46jI9bIgFpwYFs3qq-d80LlSshPLfiOnUXl3Cvf0JwHL86l6y0vPm6NaGP6WfNOriS2dpnTmk87lXhKdrqClhWLoWj_0rfedykrmLIDedxhpmROku3KsAM7mvNzS2y-I_ojr_fnI8mFL0qeuk5e2rabtgUFO11MopaR1eInwpVIjrkcLGSN9uSpYfM9ncCdGGoDgPGIH0GC49PGymnP36qNc1V0G3Khwla7uKfKvxsaGiRE6zjHGIDrQU-QaoudwGSJGc0LtqPEVlRenENLNU_AWc4TZUefACcbo6RqYywsjcrx4d7HuF7bWtbCM1UbF7hREH4P8neHthLaFd7XMv9tPlgOkA6hu0dIcAxpii2L6g2DuT8hd5gOdcpq_MsBoq5efAv-RhZxSiKkl6dcpLJxWvjxAh17khS7ZPjilA3WPZ5F7r7siJYNNNQk6wj5oF76i-IsbBSOHl38i_voyCILTuVeKFcH2sSihw_B33izdRDAR_V-6ME-L_YsvwM_y1m00]--></g></svg>