<svg xmlns="http://www.w3.org/2000/svg" xmlns:xlink="http://www.w3.org/1999/xlink" contentStyleType="text/css" data-diagram-type="ACTIVITY" height="966px" preserveAspectRatio="none" style="width:636px;height:966px;background:#FFFFFF;" version="1.1" viewBox="0 0 636 966" width="636px" zoomAndPan="magnify"><defs/><g><ellipse cx="360.2178" cy="20" fill="#222222" rx="10" ry="10" style="stroke:#222222;stroke-width:1;"/><rect fill="#F1F1F1" height="33.9688" rx="12.5" ry="12.5" style="stroke:#181818;stroke-width:0.5;" width="121.8887" x="299.2734" y="50"/><text fill="#000000" font-family="sans-serif" font-size="12" lengthAdjust="spacing" textLength="101.8887" x="309.2734" y="71.1387">Consulter menus</text><rect fill="#F1F1F1" height="33.9688" rx="12.5" ry="12.5" style="stroke:#181818;stroke-width:0.5;" width="146.6094" x="286.9131" y="103.9688"/><text fill="#000000" font-family="sans-serif" font-size="12" lengthAdjust="spacing" textLength="126.6094" x="296.9131" y="125.1074">V&#233;rifier disponibilit&#233;s</text><polygon fill="#F1F1F1" points="291.9619,157.9375,428.4736,157.9375,440.4736,169.9375,428.4736,181.9375,291.9619,181.9375,279.9619,169.9375,291.9619,157.9375" style="stroke:#181818;stroke-width:0.5;"/><text fill="#000000" font-family="sans-serif" font-size="11" lengthAdjust="spacing" textLength="136.5117" x="291.9619" y="173.7456">Disponibilit&#233; confirm&#233;e ?</text><text fill="#000000" font-family="sans-serif" font-size="11" lengthAdjust="spacing" textLength="16.7578" x="263.2041" y="167.3433">oui</text><text fill="#000000" font-family="sans-serif" font-size="11" lengthAdjust="spacing" textLength="20.6733" x="440.4736" y="167.3433">non</text><rect fill="#F1F1F1" height="33.9688" rx="12.5" ry="12.5" style="stroke:#181818;stroke-width:0.5;" width="99.2773" x="157.4951" y="191.9375"/><text fill="#000000" font-family="sans-serif" font-size="12" lengthAdjust="spacing" textLength="79.2773" x="167.4951" y="213.0762">Choisir menu</text><rect fill="#F1F1F1" height="33.9688" rx="12.5" ry="12.5" style="stroke:#181818;stroke-width:0.5;" width="124.3262" x="144.9707" y="245.9063"/><text fill="#000000" font-family="sans-serif" font-size="12" lengthAdjust="spacing" textLength="104.3262" x="154.9707" y="267.0449">Ajouter au panier</text><rect fill="#F1F1F1" height="33.9688" rx="12.5" ry="12.5" style="stroke:#181818;stroke-width:0.5;" width="130.502" x="141.8828" y="299.875"/><text fill="#000000" font-family="sans-serif" font-size="12" lengthAdjust="spacing" textLength="110.502" x="151.8828" y="321.0137">Passer commande</text><rect fill="#F1F1F1" height="33.9688" rx="12.5" ry="12.5" style="stroke:#181818;stroke-width:0.5;" width="159.002" x="127.6328" y="353.8438"/><text fill="#000000" font-family="sans-serif" font-size="12" lengthAdjust="spacing" textLength="139.002" x="137.6328" y="374.9824">Choisir mode de retrait</text><rect fill="#F1F1F1" height="33.9688" rx="12.5" ry="12.5" style="stroke:#181818;stroke-width:0.5;" width="178.7246" x="117.7715" y="407.8125"/><text fill="#000000" font-family="sans-serif" font-size="12" lengthAdjust="spacing" textLength="158.7246" x="127.7715" y="428.9512">Choisir mode de paiement</text><rect fill="#F1F1F1" height="33.9688" rx="12.5" ry="12.5" style="stroke:#181818;stroke-width:0.5;" width="135.5234" x="139.3721" y="461.7813"/><text fill="#000000" font-family="sans-serif" font-size="12" lengthAdjust="spacing" textLength="115.5234" x="149.3721" y="482.9199">Effectuer paiement</text><polygon fill="#F1F1F1" points="158.179,515.75,256.0886,515.75,268.0886,527.75,256.0886,539.75,158.179,539.75,146.179,527.75,158.179,515.75" style="stroke:#181818;stroke-width:0.5;"/><text fill="#000000" font-family="sans-serif" font-size="11" lengthAdjust="spacing" textLength="97.9097" x="158.179" y="531.5581">Paiement valid&#233; ?</text><text fill="#000000" font-family="sans-serif" font-size="11" lengthAdjust="spacing" textLength="16.7578" x="129.4211" y="525.1558">oui</text><text fill="#000000" font-family="sans-serif" font-size="11" lengthAdjust="spacing" textLength="20.6733" x="268.0886" y="525.1558">non</text><rect fill="#F1F1F1" height="33.9688" rx="12.5" ry="12.5" style="stroke:#181818;stroke-width:0.5;" width="115.5371" x="54.3594" y="549.75"/><text fill="#000000" font-family="sans-serif" font-size="12" lengthAdjust="spacing" textLength="95.5371" x="64.3594" y="570.8887">G&#233;n&#233;rer facture</text><rect fill="#F1F1F1" height="33.9688" rx="12.5" ry="12.5" style="stroke:#181818;stroke-width:0.5;" width="202.2559" x="11" y="603.7188"/><text fill="#000000" font-family="sans-serif" font-size="12" lengthAdjust="spacing" textLength="182.2559" x="21" y="624.8574">Confirmation de la commande</text><rect fill="#F1F1F1" height="33.9688" rx="12.5" ry="12.5" style="stroke:#181818;stroke-width:0.5;" width="146.1875" x="39.0342" y="657.6875"/><text fill="#000000" font-family="sans-serif" font-size="12" lengthAdjust="spacing" textLength="126.1875" x="49.0342" y="678.8262">Pr&#233;paration du repas</text><rect fill="#F1F1F1" height="33.9688" rx="12.5" ry="12.5" style="stroke:#181818;stroke-width:0.5;" width="128.5918" x="47.832" y="711.6563"/><text fill="#000000" font-family="sans-serif" font-size="12" lengthAdjust="spacing" textLength="108.5918" x="57.832" y="732.7949">Notifier utilisateur</text><rect fill="#F1F1F1" height="33.9688" rx="12.5" ry="12.5" style="stroke:#181818;stroke-width:0.5;" width="138.8984" x="42.6787" y="765.625"/><text fill="#000000" font-family="sans-serif" font-size="12" lengthAdjust="spacing" textLength="118.8984" x="52.6787" y="786.7637">Suivi de commande</text><rect fill="#F1F1F1" height="33.9688" rx="12.5" ry="12.5" style="stroke:#181818;stroke-width:0.5;" width="134.0586" x="45.0986" y="819.5938"/><text fill="#000000" font-family="sans-serif" font-size="12" lengthAdjust="spacing" textLength="114.0586" x="55.0986" y="840.7324">R&#233;cup&#233;rer le repas</text><rect fill="#F1F1F1" height="33.9688" rx="12.5" ry="12.5" style="stroke:#181818;stroke-width:0.5;" width="137.7676" x="233.2559" y="549.75"/><text fill="#000000" font-family="sans-serif" font-size="12" lengthAdjust="spacing" textLength="117.7676" x="243.2559" y="570.8887">Annuler commande</text><polygon fill="#F1F1F1" points="207.1338,859.5625,219.1338,871.5625,207.1338,883.5625,195.1338,871.5625,207.1338,859.5625" style="stroke:#181818;stroke-width:0.5;"/><rect fill="#F1F1F1" height="33.9688" rx="12.5" ry="12.5" style="stroke:#181818;stroke-width:0.5;" width="224.5566" x="401.0234" y="191.9375"/><text fill="#000000" font-family="sans-serif" font-size="12" lengthAdjust="spacing" textLength="204.5566" x="411.0234" y="213.0762">Informer l'utilisateur de la rupture</text><polygon fill="#F1F1F1" points="360.2178,889.5625,372.2178,901.5625,360.2178,913.5625,348.2178,901.5625,360.2178,889.5625" style="stroke:#181818;stroke-width:0.5;"/><ellipse cx="360.2178" cy="944.5625" fill="none" rx="11" ry="11" style="stroke:#222222;stroke-width:1;"/><ellipse cx="360.2178" cy="944.5625" fill="#222222" rx="6" ry="6" style="stroke:#222222;stroke-width:1;"/><line style="stroke:#181818;stroke-width:1;" x1="360.2178" x2="360.2178" y1="30" y2="50"/><polygon fill="#181818" points="356.2178,40,360.2178,50,364.2178,40,360.2178,44" style="stroke:#181818;stroke-width:1;"/><line style="stroke:#181818;stroke-width:1;" x1="360.2178" x2="360.2178" y1="83.9688" y2="103.9688"/><polygon fill="#181818" points="356.2178,93.9688,360.2178,103.9688,364.2178,93.9688,360.2178,97.9688" style="stroke:#181818;stroke-width:1;"/><line style="stroke:#181818;stroke-width:1;" x1="207.1338" x2="207.1338" y1="225.9063" y2="245.9063"/><polygon fill="#181818" points="203.1338,235.9063,207.1338,245.9063,211.1338,235.9063,207.1338,239.9063" style="stroke:#181818;stroke-width:1;"/><line style="stroke:#181818;stroke-width:1;" x1="207.1338" x2="207.1338" y1="279.875" y2="299.875"/><polygon fill="#181818" points="203.1338,289.875,207.1338,299.875,211.1338,289.875,207.1338,293.875" style="stroke:#181818;stroke-width:1;"/><line style="stroke:#181818;stroke-width:1;" x1="207.1338" x2="207.1338" y1="333.8438" y2="353.8438"/><polygon fill="#181818" points="203.1338,343.8438,207.1338,353.8438,211.1338,343.8438,207.1338,347.8438" style="stroke:#181818;stroke-width:1;"/><line style="stroke:#181818;stroke-width:1;" x1="207.1338" x2="207.1338" y1="387.8125" y2="407.8125"/><polygon fill="#181818" points="203.1338,397.8125,207.1338,407.8125,211.1338,397.8125,207.1338,401.8125" style="stroke:#181818;stroke-width:1;"/><line style="stroke:#181818;stroke-width:1;" x1="207.1338" x2="207.1338" y1="441.7813" y2="461.7813"/><polygon fill="#181818" points="203.1338,451.7813,207.1338,461.7813,211.1338,451.7813,207.1338,455.7813" style="stroke:#181818;stroke-width:1;"/><line style="stroke:#181818;stroke-width:1;" x1="112.1279" x2="112.1279" y1="583.7188" y2="603.7188"/><polygon fill="#181818" points="108.1279,593.7188,112.1279,603.7188,116.1279,593.7188,112.1279,597.7188" style="stroke:#181818;stroke-width:1;"/><line style="stroke:#181818;stroke-width:1;" x1="112.1279" x2="112.1279" y1="637.6875" y2="657.6875"/><polygon fill="#181818" points="108.1279,647.6875,112.1279,657.6875,116.1279,647.6875,112.1279,651.6875" style="stroke:#181818;stroke-width:1;"/><line style="stroke:#181818;stroke-width:1;" x1="112.1279" x2="112.1279" y1="691.6563" y2="711.6563"/><polygon fill="#181818" points="108.1279,701.6563,112.1279,711.6563,116.1279,701.6563,112.1279,705.6563" style="stroke:#181818;stroke-width:1;"/><line style="stroke:#181818;stroke-width:1;" x1="112.1279" x2="112.1279" y1="745.625" y2="765.625"/><polygon fill="#181818" points="108.1279,755.625,112.1279,765.625,116.1279,755.625,112.1279,759.625" style="stroke:#181818;stroke-width:1;"/><line style="stroke:#181818;stroke-width:1;" x1="112.1279" x2="112.1279" y1="799.5938" y2="819.5938"/><polygon fill="#181818" points="108.1279,809.5938,112.1279,819.5938,116.1279,809.5938,112.1279,813.5938" style="stroke:#181818;stroke-width:1;"/><line style="stroke:#181818;stroke-width:1;" x1="146.179" x2="112.1279" y1="527.75" y2="527.75"/><line style="stroke:#181818;stroke-width:1;" x1="112.1279" x2="112.1279" y1="527.75" y2="549.75"/><polygon fill="#181818" points="108.1279,539.75,112.1279,549.75,116.1279,539.75,112.1279,543.75" style="stroke:#181818;stroke-width:1;"/><line style="stroke:#181818;stroke-width:1;" x1="268.0886" x2="302.1396" y1="527.75" y2="527.75"/><line style="stroke:#181818;stroke-width:1;" x1="302.1396" x2="302.1396" y1="527.75" y2="549.75"/><polygon fill="#181818" points="298.1396,539.75,302.1396,549.75,306.1396,539.75,302.1396,543.75" style="stroke:#181818;stroke-width:1;"/><line style="stroke:#181818;stroke-width:1;" x1="112.1279" x2="112.1279" y1="853.5625" y2="871.5625"/><line style="stroke:#181818;stroke-width:1;" x1="112.1279" x2="195.1338" y1="871.5625" y2="871.5625"/><polygon fill="#181818" points="185.1338,867.5625,195.1338,871.5625,185.1338,875.5625,189.1338,871.5625" style="stroke:#181818;stroke-width:1;"/><line style="stroke:#181818;stroke-width:1;" x1="302.1396" x2="302.1396" y1="583.7188" y2="871.5625"/><line style="stroke:#181818;stroke-width:1;" x1="302.1396" x2="219.1338" y1="871.5625" y2="871.5625"/><polygon fill="#181818" points="229.1338,867.5625,219.1338,871.5625,229.1338,875.5625,225.1338,871.5625" style="stroke:#181818;stroke-width:1;"/><line style="stroke:#181818;stroke-width:1;" x1="207.1338" x2="207.1338" y1="495.75" y2="515.75"/><polygon fill="#181818" points="203.1338,505.75,207.1338,515.75,211.1338,505.75,207.1338,509.75" style="stroke:#181818;stroke-width:1;"/><line style="stroke:#181818;stroke-width:1;" x1="279.9619" x2="207.1338" y1="169.9375" y2="169.9375"/><line style="stroke:#181818;stroke-width:1;" x1="207.1338" x2="207.1338" y1="169.9375" y2="191.9375"/><polygon fill="#181818" points="203.1338,181.9375,207.1338,191.9375,211.1338,181.9375,207.1338,185.9375" style="stroke:#181818;stroke-width:1;"/><line style="stroke:#181818;stroke-width:1;" x1="440.4736" x2="513.3018" y1="169.9375" y2="169.9375"/><line style="stroke:#181818;stroke-width:1;" x1="513.3018" x2="513.3018" y1="169.9375" y2="191.9375"/><polygon fill="#181818" points="509.3018,181.9375,513.3018,191.9375,517.3018,181.9375,513.3018,185.9375" style="stroke:#181818;stroke-width:1;"/><line style="stroke:#181818;stroke-width:1;" x1="207.1338" x2="207.1338" y1="883.5625" y2="901.5625"/><line style="stroke:#181818;stroke-width:1;" x1="207.1338" x2="348.2178" y1="901.5625" y2="901.5625"/><polygon fill="#181818" points="338.2178,897.5625,348.2178,901.5625,338.2178,905.5625,342.2178,901.5625" style="stroke:#181818;stroke-width:1;"/><line style="stroke:#181818;stroke-width:1;" x1="513.3018" x2="513.3018" y1="225.9063" y2="901.5625"/><line style="stroke:#181818;stroke-width:1;" x1="513.3018" x2="372.2178" y1="901.5625" y2="901.5625"/><polygon fill="#181818" points="382.2178,897.5625,372.2178,901.5625,382.2178,905.5625,378.2178,901.5625" style="stroke:#181818;stroke-width:1;"/><line style="stroke:#181818;stroke-width:1;" x1="360.2178" x2="360.2178" y1="137.9375" y2="157.9375"/><polygon fill="#181818" points="356.2178,147.9375,360.2178,157.9375,364.2178,147.9375,360.2178,151.9375" style="stroke:#181818;stroke-width:1;"/><line style="stroke:#181818;stroke-width:1;" x1="360.2178" x2="360.2178" y1="913.5625" y2="933.5625"/><polygon fill="#181818" points="356.2178,923.5625,360.2178,933.5625,364.2178,923.5625,360.2178,927.5625" style="stroke:#181818;stroke-width:1;"/><!--SRC=[TL1BJiCm4Dtd5DxHNY5TeAeWn0PLHM8_96Dra3Esx9dUAUV8nPZW8AKjM5wzPxzV4SZIj8V8HODWTWEobbtJVanZ9a-6z5HIPFgaG3ADnf5tcwShq7MHFULX6j4zRfsSaTqcAcqRPwSzd2CLgjgx2ks_eivse2u1cys27w4KWxiu3C0zxcu4Oe_ERaR9GF8Fcu3Gh7xfP- -n4pNLQsAkSLmGTu50lHMvJ_-ZyJADR8EOXWVJoakmQb-xWr3asJx0JVnQB4zZWhoyKgkGeApujoXrRXNRj82WvXNzhdIXMVqFwTCqTffgl81hPGm5tOOZhwhicJNSJOpSaszkthUlx6CUPjc7LQobPDPKbwX_YyJq3G00]--></g></svg>